/* XPM */
static char *d87a1ed32fab473da0fcceced2af49292cODa1oyncqJxMAn[] = {
/* columns rows colors chars-per-pixel */
"80 80 256 2 ",
"   c #2B0200",
".  c #340200",
"X  c #3B0300",
"o  c #3D0B00",
"O  c #350B00",
"+  c #3C1502",
"@  c #1D0000",
"#  c #440400",
"$  c #440B01",
"%  c #4A0D01",
"&  c #4B0702",
"*  c #540E01",
"=  c #441300",
"-  c #4C1301",
";  c #4C1B00",
":  c #471906",
">  c #531502",
",  c #5B1401",
"<  c #541B02",
"1  c #5A1C01",
"2  c #551B0A",
"3  c #5B1C0C",
"4  c #55150B",
"5  c #591B14",
"6  c #631C01",
"7  c #691D01",
"8  c #631905",
"9  c #721E03",
"0  c #651F13",
"q  c #4C2307",
"w  c #542302",
"e  c #5C2302",
"r  c #5D2A04",
"t  c #5D230C",
"y  c #5D2A0C",
"u  c #54260A",
"i  c #5A2815",
"p  c #5D3418",
"a  c #4E2B11",
"s  c #632302",
"d  c #6B2302",
"f  c #642B03",
"g  c #6B2B01",
"h  c #64250B",
"j  c #6C250B",
"k  c #642B0C",
"l  c #6B2C0C",
"z  c #732402",
"x  c #732C02",
"c  c #7A2C02",
"v  c #74240B",
"b  c #742C0B",
"n  c #7A2D0B",
"m  c #7A2507",
"M  c #6D3202",
"N  c #64320D",
"B  c #6B330D",
"V  c #6A3708",
"C  c #743302",
"Z  c #7B3502",
"A  c #7C3A04",
"S  c #73340B",
"D  c #7B330C",
"F  c #743B0C",
"G  c #7C3B0C",
"H  c #753905",
"J  c #642413",
"K  c #642B12",
"L  c #6C2C12",
"P  c #6C2B1A",
"I  c #662819",
"U  c #732D13",
"Y  c #752B16",
"T  c #643314",
"R  c #6C3313",
"E  c #6D331B",
"W  c #6D3C1B",
"Q  c #683818",
"!  c #733413",
"~  c #7C3313",
"^  c #733C14",
"/  c #7B3C15",
"(  c #73351B",
")  c #7A351A",
"_  c #743C1B",
"`  c #7B3C1B",
"'  c #672C22",
"]  c #693824",
"[  c #743B23",
"{  c #7C3C23",
"}  c #763728",
"|  c #74362B",
" . c #5C2D27",
".. c #7A420C",
"X. c #764213",
"o. c #7E4415",
"O. c #75431C",
"+. c #7B431C",
"@. c #7C4A1B",
"#. c #6F4117",
"$. c #6C4328",
"%. c #754323",
"&. c #7C4423",
"*. c #7C4A24",
"=. c #7C4C2B",
"-. c #77442A",
";. c #7B4833",
":. c #7A5135",
">. c #7D4D43",
",. c #833D04",
"<. c #833C0C",
"1. c #893509",
"2. c #933909",
"3. c #823514",
"4. c #833C14",
"5. c #8A3B14",
"6. c #833C1B",
"7. c #8B3C1B",
"8. c #883518",
"9. c #933E13",
"0. c #963E19",
"q. c #802F11",
"w. c #843D24",
"e. c #863D27",
"r. c #923E21",
"t. c #84430B",
"y. c #8B430C",
"u. c #87470A",
"i. c #96480D",
"p. c #834414",
"a. c #8B4313",
"s. c #844A16",
"d. c #8C4A14",
"f. c #83441B",
"g. c #8C431C",
"h. c #854A1C",
"j. c #8B4C1C",
"k. c #934C14",
"l. c #92431C",
"z. c #944C1B",
"x. c #994E1B",
"c. c #994714",
"v. c #8D521C",
"b. c #8C5416",
"n. c #945216",
"m. c #9B5215",
"M. c #94521C",
"N. c #9C541C",
"B. c #94591D",
"V. c #9D5A1C",
"C. c #9D5B15",
"Z. c #97530C",
"A. c #A25B1C",
"S. c #A35919",
"D. c #A0400E",
"F. c #A5631B",
"G. c #AA641C",
"H. c #A46216",
"J. c #B1661F",
"K. c #844422",
"L. c #8B4423",
"P. c #844B24",
"I. c #8B4C23",
"U. c #83442B",
"Y. c #834C2B",
"T. c #8B4D2A",
"R. c #8B452A",
"E. c #934C23",
"W. c #934826",
"Q. c #855224",
"!. c #8C5223",
"~. c #84522C",
"^. c #8C532C",
"/. c #8E5A2D",
"(. c #8C5A24",
"). c #945424",
"_. c #9A5523",
"`. c #945924",
"'. c #9C5B24",
"]. c #93552B",
"[. c #9B542A",
"{. c #955B2B",
"}. c #9B5C2C",
"|. c #864934",
" X c #845332",
".X c #8C5533",
"XX c #8D5A34",
"oX c #8C5B3C",
"OX c #89543A",
"+X c #925533",
"@X c #945B33",
"#X c #9B5C33",
"$X c #945C3A",
"%X c #9B5D3A",
"&X c #975438",
"*X c #924B34",
"=X c #A35C24",
"-X c #A45D2B",
";X c #A55A25",
":X c #A35D32",
">X c #A65E35",
",X c #A14923",
"<X c #9D632D",
"1X c #996328",
"2X c #956234",
"3X c #9C6234",
"4X c #94623C",
"5X c #9C633B",
"6X c #9C6A3B",
"7X c #8F6239",
"8X c #A56324",
"9X c #AB6423",
"0X c #A5632C",
"qX c #AA642C",
"wX c #AC6A2B",
"eX c #A66A29",
"rX c #B26927",
"tX c #A26333",
"yX c #AB6432",
"uX c #A36B33",
"iX c #AC6B34",
"pX c #A3653B",
"aX c #A56B3C",
"sX c #AB6B3C",
"dX c #AA663C",
"fX c #B26D33",
"gX c #B1673A",
"hX c #B26C3B",
"jX c #B16635",
"kX c #AD713D",
"lX c #AA7138",
"zX c #B57338",
"xX c #AD7129",
"cX c #97601E",
"vX c #C3793B",
"bX c #8B5C45",
"nX c #975C43",
"mX c #9B6443",
"MX c #996946",
"NX c #97694B",
"BX c #A46542",
"VX c #A46B43",
"CX c #AB6C43",
"ZX c #AB6E4A",
"AX c #A66948",
"SX c #B26E46",
"DX c #AC7244",
"FX c #A77248",
"GX c #B2734C",
"HX c #B57746",
"JX c #A87555",
"KX c #B47A56",
"LX c #A76C56",
"PX c #C37D4C",
"IX c #BC825B",
"UX c #C48B5F",
/* pixels */
"  >.bX.X].'.b.B.B.b.1X(.!.#X_.>X&X&X+X$X+X@X&X@X^.^.]..X].+X+X+X].).).).{.`.[.'.'._.'.'.'._.'.`.`.B.`.M.`.`._._.[.).).].[.[.[.].).).).N.x.x.S.S.x.N.].I.oXoX$.O ",
" .o OX+X3X}.B.1X1X1Xv.2XVXSXgX}.pXpXpXpX>X5XpX#XCXCXdXpXpXpX#XtX3X3XtXtXyX0X0XyXyXyXyXiXuXyXyX0X0X0X0XqX0X0X0X-X:X0XyX-X:X:X-X:XtXtXyX0X;X;X;X=X-X_.pX4XMXMXO >.",
" .bX$ .X3X).<XB...2X(.<X).G E.z.y.t.<.<.G G A A A A <.p.d.k.M.M._._._.'.'.'.=X-XN.M.M.N.N._.V.N.d.n.k.n.k.n.M.x.M.M.x.M.z.z.z.z.I.M.).`.N.M._._._.{.{.].XX= $.:.",
"i LXOX$ !.v.0X!.1X(.X.@.I.s.g.1.y.y.y.,.,.,.,.,.Z A Z Z C C c c x C C Z Z A ,.,.k.k.m.M.N.N._.V.9XqXqXqXfXfXfXfXjXiXjXyXyXyXyXyX:XtXyX-X#X0X-XtX#X3X5XP.- 7X~.XX",
"q NX X^ > !.tX^.5X@.X.X.`.kXqXqXrX9XrXJ.J.J.9XJ.S.G.S.S.S.S.S.S.S.x.N.N.S.N.A.=Xx.N.m.A.A.N.A.V.m.m.m.V.N.N.S.A.=X;X=X;X;X_.=X_.[.'.E.h.@.@.@.@./.XXXX= ~.MX].$X",
"y NXQ.h.#X> !.P.^.^ *.^ f.uX=XzXJ.9XJ.J.J.rXJ.J.G.G.G.rXJ.J.rXrXzXzXzXfXjXfXjXyXqX0XqX=X-X;X'.N.V.V.V.N.N.m.M.k.y.y.y.u.y.y.y.<.t.p./ F V #.@.$.Q _ o @.{.}.Q.I.",
"T 6X/.@.pX#XX R.mX-.T ^ ).uX=XZ.G.G.J.9XJ.A.G.J.J.S.J.S.S.m.D.Z.i.k.k.a.a.p.t.p.<.G G A D Z S Z g x g d f s s s g x g M x M x g g g g M N T $.$.%.O =.*.+XsX).N.",
"V 7X(.#.tXCXL.1 AXLXnXVXaX0XzXwXfXrXrXrXfXrXfXfXrXqXqX9XJ.;XG.=X'.;X'.-X{.}.#X}.+X{.#X#X#X#X[.}.}.}.}.}.[.<X}.}.}.}.}.}.2X{.}.<XyXtX5X5X4X7XbXbX+ :. XO.!.tX_.k.",
"V (.3XF :X#X&XnX< t  XY.h.B.d.n.B.z.s.).[.}.).).E.}.).E.[.}.E.[.E.[.[.I.I..X/.P. X+X~.T.R..XT.T.K.].P.+X^.^.{.^.^.(.2X/.XX/././.).{.).P.oXbXp q $.bXQ @Xh.3XN.N.",
"#.2X<Xo.h.#XW.ZXL w =.$X@X{.n.8Xj.#XsXtX#X#XVXCXBXAXBXpXAXBXBXBX#XtXtX3X$X%XmXbXbXbXbXoXoXOXOX$X$X4X$X5X%XXXmX$XMXMXXXFX7X2X X6XtX`.}.VXFX=.p $.:.$.=.O.).yXk.m.",
"V 1X{.G g f./ ZX|.< = < < e e x M < $ % - % - > > > > % % % % - > > 1 > = o o ; : % o = 2 o # > - - $ $ - o - = ; o :   ; + u w s s s < w q #.bX$.q XXw !.sX,.d.",
"#.6X3XH g G F BX~.R u _ P.5X).p.5XY.k - 1 k k < K t i t 2 > 2 1 b g b B e $ - i i : - : I $ & I I h 1 w k t T y r T = ; + :.*.@.o.}.tX{.~.V =.MX@.q ~.> I.yX<.y.",
"#.2XkX..s.d.I.sXB r ; *.P.5XtX3XT.JXVXk - k { R { E ( [ t t I l 4.<.g.f.b > < '  .2 4 2 | - * } &.Y L h &.L U.( Y.B k ; *.=.MX^.sXtXpXCXpX< V $X@.O.~.F !.aXp.p.",
"V (.DXs.0X'.}.SXQ.R w  X^ R K.GXP.3XVX].B < e ! _ k ( [ t 1 K h 3.2.a.6.b 1 3 | I 2 2 4 e.> , e.e.L j 8 K.L K.( K.k - +.@.@XQ.6XpXtX).!.).1 ^.FXQ.@X].h.I.tXj./ ",
"B @XaXb.-X0X`.kXB r ; AX$XP.f.T.pXP.!.VXpXF e f o.k _ &.t 1 l d 1.2.c.0.~ j ! { 3 4 4 & e.* 8 e.R.U v d W.U L.D ! s ! f.pX^.@X{.p.uXdX).3Xg ).p.h.#X{.Q.Q.5X+.S ",
"^ VXtXB.n.iXn.kXh.V o XX.X$X` e h.I.Q.I.#XpXf.> / d ~ K.6 1 l j 1.2.9.2.n v U { 3 3 4 & e.4 8 r.W.m 7 6 R.l w.l > ! j.E.I.#X!.^ ).}.{.{.aXe ].}.j.M.3Xp.].aX+.F ",
"X.3XxXZ.C.=XV.wXs.e u NXOX@X~.V :.#.$XVX^.:XdX4.d 6 n L.7 * P U 1.2.c.9.n 6 |.| 4 5 4 # e.9 8 W.9.c n % OXQ p = ( / E.>X>XW.g.I.V @.6XFXXXN *./.(.v.0Xz.z.CX).B ",
"X.<XxXZ.m.9XN.fX<.R $ :.FX6X@.*.y T Y.5X+XE.:XgXx d b 6.6 4 | Y 1.2.c.5.n 6 |.e.4 4 4 & e.9 8 c.9.c j k ;.a q Q Y.E.x.;XgXgXL.l @.~.MX6X*.q *.2Xv.v.0Xk.z.sX).M ",
"/ <XxXZ.S.;XS.fXF R . i 7XFX7X/.XX+.S !.hX,Xa.iXgXD , ! I 2 ' 5 q.1.y.2.D 6 K.U.4 4 4 & w.U 6 z.l.j ` > ;.+ Q =.).-X;XN.=X0X-X!.2X6XVX=.a q @.2X!.M.0Xk.z.iX).M ",
"` <X9XC.x.qXV.zXf.k X $ q (.IX/.DX3XG A _.-X_.d.PX].l l u = i 2 q.2.9.1.A 6 f.R.3 4 * , { ~ d l.7.6.0 t 2 ] -.^.).0X;XS.k.'.uXVX6XVXXXu + q =.Q.I._.=Xk.M.iX'.M ",
"+.3X8XS.k.rXN.zXf.k o . = r %X5Xz.wX9XZ z m.fXA.d.DXCX%.= O i p q.<.a.1.<.6 D L.6 , , 6 ) ` g K.*XJ I X | [ mX).'.S.A.F.9X<X1X{.3XP.k = = ; ~.^.j.'.V.M.M.wX1XM ",
"+.pXF.A.c.yXN.HX+.( X $ W ; e pX>XN.=X=X,.C m.fXd.0XaXVX] + : i ~ 5.y.<.<.8 Z g.6 , , 8 ( { f K.|.J # } { $X].;XN.S.A.F.8X'.1X2X/.w $ ; u = &.2Xj.'.V.m.N.qX0XM ",
"K.pXF.F.c.yXx.zX` E X $ .Xr > ^ iX_.N.fXqX,.C A.iX`.j.VXFXT ; ; ! f.6.G a.6 c l.7 8 , j ! K.k %.} - K &.5XT.-XM.k.A.9XA.B.`.2X2X! > - k T : &.5Xs.-XN.N.V.0X0XM ",
"K.dX8XG.d.jXx.HXP.I $ - &.^ ! & s kXiXa.8XwXu.,.V.iXb.v.3X6X+.% L { ` 4.j.8 c 0.8 8 , I P U.k _ < y &.5XI.-X=Xy.A.rX8X'.3XFX~.r > s T K y ; Y.{.g.=Xm.m.N.8XeXM ",
"K.dX8XG.z.jXM.zXf.i 4 $ &.P.) 1 X B VX2Xb.uXV.A u.C.iX8Xk.1X0XF > P ) ` W.D z W.* Y , Y } | t $ r *.3X{.k.x.A.A.;XA.:X}.BX+Xt X ` ( h E y w Y.$XE.N.A.m.A.8XlXg ",
"K.pX8X9Xk.yXm.HXP.k 4 $ K.K.) e l o r 2XVX{.b.uXu.u.8XwXi.S.fXz.) L e ) ].! d *X7 8 & | } I > t Q./.1Xn.k.m.S.A.=X-X}.BX-.[ > > w.! L ( h < K.#Xz.N.;Xk.=X8XiXM ",
"f.sX8XG.c.iXn.zXK.i $ $ { K.3.s [ o o N ~.5X{.'.=XA u.rXrXm.m.rX&X} 1 j L.! L R.0 0 4 } P , , K.2X(.b.k.C.S.G.=X:X{.AX=.| * I J e.( L { k < P.%Xj.N.A.c.V.0XsXM ",
"K.sX8XG.k.wXb.zXI.I $ $ &.f.4.j ] p u o w 5XaXs.'.N.A y.vX9Xi.;X>X.X! s R ) [ { 4 | 0 I 8 J ` #X(.b.b.V.9XG.;X-X}.AX|.| # P } J r.~ l ) K 1 K.#XE.z.A.k.'.=XiXx ",
"K.sXF.G.n.wXd.lXQ.k $ % &.f.3.j [ K E e - B I.uXj.uXM.C y.zXzX;X}.#XI.S s f T [ i ] * 4 h T.}.].!.).'.9X;XA._.{.5X;.] = i J &X8 L.3.b ` l 1 -.>XE.x._.c.;X-XsXH ",
"K.iXG.G.d.qXZ.lX!.k % & K.6.~ z { 6 ( ` 1 $ s #XtX`.tX'.g k.HXqX:X_.].Q.S w r ] K i X h L.:X;XN.).#X0X-XA.,X-XtXXXQ O ] 1 ` r.7 l.D l ` l 1 K.>X_.x.S.x.;X-XsXH ",
"g.sXG.H.i.9Xu.lX!.k = > K.4.q.z 3.j ) ) s > 1 g pXI.{.VXP.f o.tX>XA.'.`.@.V r u ; i < U.{.-Xx.m.[.>X:X_._.;X#X].] : : p ( 7 W.9 l.c j ` L 1 K.>X[.x.,XN.-X-XCXF ",
"h.fXG.G.u.eXZ.wX`.f % - L.p.n z q.z ~ 3.~ 6.f > f pX/.K.DXI.1 I.sXyXuX(.v.Q.#.=   Q Y.AX].d.k.'.>X>X:XE.[.}.I.B : a i =.f d x.9 a.c d ` L 1 f.dX_.x.x._.>X-XSXG ",
"u.zXG.H.i.qXt.eX).^ & > K.r.m Y 9.9 5.3.d 6.U.R . R &X#X].yX<.x I.pXpXVX+XQ.T.N e +XFXP.^.I.#XtXtX).j.).%X+Xk X E -.K ( b 7 k.z y.1., { P 3 K.uXV.C.N.z.;XyXgXt.",
"p.zXH.H.k.qX,.qX{.! % > U.r.v v 8.z 3.~ 9 { K.( h # l BX].:X[.5.e k .X&./.R.f.f / ].^.&X&.R _ FX!.o.I.BX.Xe - L [ { j 6.S x x.z y.<., } ' 5 @.uXV.C.N.k.>X>XfX,.",
"s.lXH.H.k.0Xt.0X`.^ % 3 e.7.v v 8.9 q.n j { K.{ ! 1 % ! W.>X].}.+.r $X^ AXAX&X^ ].BX` ^._ $XR Y.X./.2XP.f > h ( { { d / x d z.7 y.<., } I 5 K.uXC.C.m.c.>XqXfX,.",
"d.fXF.F.k.-X<.eX{.) % 3 K.g.v 9 8.z ~ n v 6.e.K.6 +Xs % l $X&X@XOXR T e $XVXBXB e 4X+X.Xr W y *.~.VXXXe - ( U.Y w.e.d ~ x 7 z.z 2.8., } I 5 K.uXV.S.N.x.:XyXhXt.",
"b.fXF.H.k.-X,.qX}.` > 3 K.5.v v 7.v ~ m n 6.g.W.l ].K.( - E MX XoXOXk W P.$XKXP.P.P.Y.XXmX*.] oXNX:.y u T _ { w.r.W.n 7.n 7 E.D y.<., ( i 3 @.uXH.C.A.c.yXyXfX<.",
"d.iXF.F.x.-XA qX`.^ > t L.6.v v w.n ~ n ~ 7.6.].b T.( .XT o i NX-.NX%. XO.R MX+.e Y.AX*.=.p =.NX:.y + Q &.! ~ L.7.W.n L.n 6 W.<.k.<., P 5 t K.uXcXC.N.c.>XyXfXt.",
"b.fXH.F.k.-XA yX)._ > 5 L.p.v v w.~ ) U 4.l.5.[.b #Xl Y.:.O @ $.:.NXMXoX~.Q 4X` Y.VXAXT 4XNXJX:.a a a  .[ { w.8.8.8.z 7.b 6 T.D k.5., P 5 5 P.<XV.C.V.z.>XyXfX,.",
"j.lXH.xXx.-XA wX`./ > t L.7.v v e.) ~ ~ 7.l.5.E.<.:X) Y.$.a +   p Q *.N &.r +.< N O.W w %.#.W p + a a ] -.w.w.7.7.7.9 0.n d W.S a.a., P 5 3 P.uXF.C.A.x.>XyXhXt.",
"h.kXF.F._.-XC qX{./ > P 4.h.z j e.U U D 3.l.<.l.d #XS -.-.: O O a :.-.T =.*.< f *.XXN T ~.u w p O a $.Q [ w.j 7.q.0.9 7.3.d L.G a.d.8 8 5 4 Y.<X8XS.x.k.gXyXwXt.",
"j.zXF.F.x.-XC 0X{.^ > I 6.l.v v L.S ~ n 4.g.7.E.5.#X1 P. X+   ] NXFXT JXKX~.FXw +.VXUX+.*.bX#.$.>.+ a ] E e.R.8.8.8.9 7.3.7 I.~ d.d.7 3 5 2 !.<X8XH.k.c.gX>XyXt.",
"f.zX8XF.x.:XC wX`.` > P 4.g.m v L.~ ~ n 5.l.d.E.4.f./ mXk = $.NX$. X7X4XY.N +.Y.~.4X$X*.~.~.=.T $.p u T [ ( ) 6.q.7.9 7.3.d W.<.a.z.8 8 5 2 T.3XxXH.m.k.gXyXyXu.",
"p.fX8XF.x.;XC qX`.` < P / d.z m L.q.D n 3.L.L.[.g L.T.P.- _ FXmX~.KX~.~.XX@.GX(.].FX4XIXMXO.oXMXa bXW t T l ( 6.q.7.7 7.~ 7 L.<.2.x.0 3 5 2 Y.0X8XA.m.c.gX>XyXu.",
"p.zX8XF.E.[.x qX`.+.> E p.a.m m 7.D q.x D L.L.I.s @Xs > f.aXI.I.KXX.+.@.+.2XIXM B {.FXGXB 2Xr @.~.~.@.Q - e &X{ ) w.d 6.4.d l.,.y.x.j 3 4 2 ^.<XeXF.m.k.gX>XjXy.",
"4.kX8X9Xx.;XC yX).o.> ( 4.a.z m 9.1.1.z D f.f.K.s f % S pXdXg.tX6X= 2X+.!.CX^.].h.GX{.2Xf 4XN X.(.@.@.Q.k > L U.( { d 6.3.d z.<.y.E.j , 4 2 !.<XxXF.c.k.gXyXiXu.",
"/ kX9X8XE.;XC 0X`.` 2 E / a.z n 9.1.1.x D K.{ *.1 - / GX).'.-XyX+.O.f V KX!.tXo.g KX].pX^ r @.FXF s.!.].$Xk $ [ E { h 6.3.d c.<.y._.L 4 % 4 !.3XeXF.n.c.jXyXjXy.",
"o.hX8X9Xx._.C 0X`.` 1 ( 4.g.z m 9.1.8.x ~ U.{ ` $ ^ #XyXz.qX=Xi.sXh.6Xj.3X5XGXo.e !.FX@XaXaXh.HXeXH j.].^..XL - E { f 6.<.7 z.<.2._.j > - 2 T.<XxXF.m.k.jXyXiXd.",
"F kXfX8Xk.;Xx jX).f.1 U 4.7.x m y.2.4.~ Y { { < ( aX<Xs.wX=XZ zXu.cXeXM.v.DX.XX + y  XmX2X'.8Xm.V.iXA H 3X/.) ^ % k ! f.~ g L.a.x.[.n % > > ~.uXxXC.m.m.J.G.jX5.",
"F kXfX'.k.=XC jX).6.s b 3.L.c c ,Xc.z v |.| 2 ( 5X2Xu.1XV.n.zXy.xXcXt.'.HX+.& u u = u :.3X<XF.F.N.wX8XC b.aX].$X^ e > K.I.j ~ g.W.E.Z % - < (.eXxXH.m.Z.J.S.jX7.",
"..kXiX1Xi.8XC sX].6.1 ! 3.L.c c l.<.4.Y 8 0 { &X6Xs.1XB.n.iX`.0X'.u.'.zX).> > | | : = K P.<X0XA.rXA 0X0Xf p.3X^.5X1 > / S n W.D g.E.A - < 2 ^.uXxXH.S.i.G.G.gX6.",
"..uXiX'.c.9XZ gX].6.1 S 4.7.c z ,.4.W.d & { BX*Xv.eXB.cX1XM.'.0XX.1XHXI.* s e.( | ] u - t T.dX'.n.IXt.uXsXs I.{./.CX/ % s / 6.h.L.E.G 1 2 2 ^.uXxXS.S.i.G.9XgX8.",
"X.uXuXV.k.qXZ hX].+.1 l 6.L.m x a.I.d * ` >X[.z.0X1XB.8X1Xv.{.^ @XKXI.& 9 W.w.0 | | ' > $ R &XpX_.M.HXt.M.DXf {.).4XaX~ & f g.p.g.[./ < 2 2 Q.uXxXS.S.i.G.G.gX6.",
"..uXtXN.k.qXZ hX[.f.1 L { L.x z I.f 1 / >X[.l.>X=Xn.fXB.B.2XR ^.KX*.> d W.W.8.Y } ' ' ' - $ R [.uXd.`.iX..p.aXf ].M pXDXs 1 S 4.7.[.t.1 2 < I.uXxXF.N.i.G.G.SX4.",
"X.aX<X'.d.wXZ SX].+.1 B ` L.x g S < ~ pXW.z.-X9Xy.zXm.`.!.B XXMXY.- s E.0.8.r.8.e.J P } t $ - l #XkXB.}.HXv.s.!.F I.h.j.DXp.# p.p.).p.< 3 < I.<X9XG.N.i.G.9XkX` ",
"X.uXuXB.k.qXA hX+X+.< N w.I.x j > ~.+X/ E.iXA.i.vX,.=X'.M Q.NX~.. ! f.q.0.,X8.9 q.7 0 ' E K < % M 3XpXj.3XsXo.h.Q.f Q.].j.sX!.& ~ I.o.e 2 2 ~.yXxXF.S.i.H.9XhX4.",
"F DX).k.M.fXC SX#XK.> y ^.P.g # R.Y.*.j.iXV.u.vXA.,.;XS ^ KX-.O N ^ j.<.c.9.9.q.3.d h h E 1 ( B X / aX].].sX].d.p.).f p.j.!.DXF * / o.f K 2 P.iX9XrXS.Z.S.xXsX/ ",
"F DX`.s.M.wXC hX].Y.= r +Xs * T.T.-.o.kX'.d.zXy.;XiX1 ) IXE   e l G d.1.c.2.2.q.5.7 6 l R 1 ! ^ s . ^ DX^.h.tXKXo.C o.H j.+.{.DX/ s M B > $ /.<X9X9Xx.m.C.wXCX/ ",
"X.DX).t.M.qXG CX^.P.e w l h ) T.K.` DX{.b.wXV.=X'.6 W.AXP X X k S y.c.1.D.2.2.q.5.6 1 l ( 1 ^ / e X - ^ %XpX].#XaX).g S F ^.F 3X#Xf.e = t 5 P.}.9X9XN.m.S.xXaX! ",
"X.kXv..._.0X..CXXX*.u - e Y.[.f K.ZX].M.8X`.B.b.d ` LX] X - - ( H <.i.1.i.2.2.9 7.6 1 l ) 1 D ` f k 1 . ) GX%XS GXCX!.f o.e /.o.@XVXX.o : 4 P.tX9X9Xm.m.C.9XpX^ ",
"X.DXb.G '.}.p.sXXX%.o ;  XO.! K.SX>XI.<X1Xv.b.M ^ KXP $ I 0 h s 1.2.2.1.2.2.9.c R.s 1 L ) , D f.[ > [ e % k pXCX/ CXaXGX< e @.^.K.+XaX+.X . T.0X9X9Xx.S.H.eX5XQ ",
"X.VXs.H 0X'.s.tX@XW w %.=.R K.CX&XL.dX}.1XB.f Q.JXt . ' | 5 J 7 1.2.D.1.D.i.0.m R.j 3 L ! 8 3.7.L - ;.T t # ` GX#XS KX5X@XB r B P.Q.6X6X;.$ ` }.8X8Xx.N.F.8X3XR ",
"X.DXs.H iX'.j.3X/.Q Q =.W Y.FXI.~ :Xd.0Xb.r (.2X] O # ' e.5 # 8.1.2.D.1.D.l.7.b U.I 3 J U 7 7.7.3 I U.3 { 1 , l CXT.I.#XFXFX= f +.P.@..XLX' B 0X9XF.c.A.F.8X3XT ",
"F DXs.H iX`.j.3X~.@.; y XXMXW.f GXs I.1Xw @.VX%..  .4 | } 4 Y 7 2.2.D.2.,X0.L.v e.J 0 j U 7 7.r.) 1 |.J ! j ! # ! GX%X*.GX^.^ MXB N P.XX-.2 Y.}.8XA.x.N.8X0X#XL ",
"V DX....iX1X..6XQ.+.< R FXBXp.S - #.XXy Q MX#.= w -.- E |.> h j 2.2.2.2.0.0.r.q.r.q.v Y v v 8.r.n d L.d Y j e.* # ) KX>XT.mXh.r > N O.=.XX+ @.1Xb.eXd.'.0XaXK.W ",
"S DXs...uX1X@.lXQ.+.< GXBXg SX#X%.MXq T JX%.= y u &.; E &.1 j l 1.1.D.2.D.0.r.m 8.9 9 9 7 z ) 6.3.x E.x ) ) *X8 ( . } KXT.` 3X3X@X+.^ %.~.O #.1XB.zXu.}.}.%X&.( ",
"/ CXh.X.6X1Xb.FX*.[ [ *XT.&XSXI.4Xw Q JXy o |.T t &.> ( U.> l l 1.1.c.1.8.9.r.m e.q.Y v 8 Y w.w.U d 6.j Y L e.2 ] R.% t UXFX#.MXaX^.^ @.=.: @.lXv.kXp.}.].%X&.W ",
"/ GXo.h.6X6X*.7XY.K 2 { KXKXI.#XT p NX=.o t Y.Y.k ( e ( &.6 L b 5.1.d.4.0.8.L.~ q.) Y 0 6 U { ! 4.! K.U ( } { J L bX$   -.FX4XX.3XaX2X*.@.q #.~.j.`.M.v.tXVXR R ",
"4.KX/ I.O.~.R mXbXbX4 U.ZX+.o.F w ~.Y.. > &.r R 1 h , h L > 6 6 D x D x G b ~ l j h h h 1 h R f k s f 1 h t t - [ Q ; =   V IXQ.o.<X6X=.#.u *.FX^.S ).C 3XDXN X.",
"G GXK.I.f ^ P LX| I 5 5 > r V + e r = 1 1 e ( > 1 s > d d > 6 1 s 1 d s f 6 f 1 s 1 f e < e k < B g f s k k h < t k - = = O q f o - w ; : O y 4X.Xg I.g !.VXf @.",
"F sX!.P.K.{ |.NXbX# ;.nX$XaX(.lX6XGX$XFXKX5XZXGXGXCXCXGXSXCXGXCXsX0XkXaXCXpXGXCXAX5XVXAX5X6XMX6X#X3X].%X5X$X$X$XnXY././.*.Q.X.M ......V #.N y *.T.L.f.p.!.pXV @.",
"p.}.).j.GX$XnX*X* |.bXnXVXQ.b.cXv.!.uXj.s.}.j.!.).I.E.[.E.j.).g.M.t.M.d.E.p.].I.#XI.!.{.!.!.`.`.).`.v.].#X#X).@X@X!.3X{.2X6X{.kXeXwX6X6XNXJX-.i U.CX/ DX].6XV X.",
"H uXb.j.FX{.P.> &XnXnXnX2XB.cXcXB.B.M.M.M.b.j.b.z.b.z.b.z.M.n.z.n.n.n.M.M._._.`.).[.'.`.`.`.`.B.M.z.M.M.E.M.E.I.).)._.`.`.`.B.B.1XB.h.Q.XXoX=.| - .X].>X@X3X^ @.",
"..6X(.!.kX{.# @XnX.X&.K./.<X1XB.1X'.1X1X'.A.1XB.'.=X1XF.=X'.8X'.8X8X8X1X=X'.}.'._.B._.'.'.F.'.=X9XqXqXqXqXqX0XqX-X-X8X0XqX0XqX8Xn.eXHX6X=.-.nXKX.X& K.$X3XmX#.~.",
"X.FX(.v.uX> Q.#X^.I.f.` s.v.1XeXn.n.n.n.M.n.n.C.n.C.n.B.C.B.n.n.n.k.k.n.k.z.M.M.M.M.M.M.m.V.C.V.m.M.M.N.N.N.N.N.A.V.A.N._.A.A.=XfX'.o.^ %.=.~.=.nX].# ].%X2XO.*.",
"V 6X!.V = v.!.`.%X~ 1 f j.<XB.u.n.n.n.Z.b.d.d.d.d.d.d.u.d.u.d.d.n.n.d.k.k.M.k.M._.'.V.V.V.V.V.V.V.A.A.=X8X8X9XeXqXqXqXqX9XqXwXeX'.kXHXXXN e =.FX%X+XI.> ~.4X$.-.",
"#.NX7X= /.<X3X<XpXCXZXBXdXpXCXHX0X0X0X0X<X}.'.}.}.'.}.'.'.`.1X'.j.j.d.a.<.G G G g g g g g g x g Z Z A A A A A A t.,.t.,.,.,.t.<.s.p./ ^ _ O.%.*.I.).].^.- mX;.bX",
"a :.+  X2X!.`.v.E.g.6.L.&X[.I.3.v.j.j.I.E.j.j.z.j.j.j.j.j.j.j.j.).!.I.j.j.j.f.f.E.).M.M.B.`.B.V.'.'.'.`.'.M.M.n.G ,.H A A A A G G / +.O.O.@.@.@.X.o.G I._ o  .:.",
"$.+ bXNXVX1X2XtX#XdXGXSXAXBXAXZXBXdXCXpXCXpXsXCXpXpXpXaXpXaXpXVXpXVXBXVXAXCXZXCXCXCXCXDXkXkXHXzXDXDXDXDXkXsXuXaXkXkXkXkXCXsXCXsXgXCXZXCXAXVX6XlXaXuXaXVXmXLXo bX",
"@ >.$.$.O.#.s.d.p.6.6.w.e.R.r.*X].^.W.I.I.L.K.f.K.I.f.I.K.K.h.K.f.+.O.+.+.*.*.P.P.P.K.h.j.s.s.h.o.o.@.s.o.@.p.o.o.o.p.o.f.p.o./ f.6.` ` O.O.O.X...o.G +.{ OX .  "
};
