/* XPM */
static char *_639686480832[] = {
/* columns rows colors chars-per-pixel */
"80 80 247 2 ",
"   c #281B14",
".  c #251A0F",
"X  c #1B3C1D",
"o  c #0F3916",
"O  c #2C2F1B",
"+  c #0F3E20",
"@  c #3B3C26",
"#  c #373A27",
"$  c #2B3222",
"%  c #170A07",
"&  c #423B26",
"*  c #174A0A",
"=  c #135D0B",
"-  c #09481C",
";  c #154618",
":  c #0A551A",
">  c #0B5B1A",
",  c #0A5519",
"<  c #0D560C",
"1  c #2B4914",
"2  c #0D6B0B",
"3  c #11690A",
"4  c #0C7608",
"5  c #15730B",
"6  c #0C6415",
"7  c #0D6B14",
"8  c #0A631B",
"9  c #0C6A1B",
"0  c #146713",
"q  c #0C7317",
"w  c #137012",
"e  c #0B4C22",
"r  c #074821",
"t  c #0A5C24",
"y  c #085727",
"u  c #13592F",
"i  c #334928",
"p  c #0D6C22",
"a  c #0D6C2C",
"s  c #0B6428",
"d  c #126829",
"f  c #0D7225",
"g  c #0E742A",
"h  c #0D7A2D",
"j  c #107A2F",
"k  c #12752C",
"l  c #0A6932",
"z  c #176538",
"x  c #0C7334",
"c  c #0D7C33",
"v  c #0B7A39",
"b  c #127C33",
"n  c #127B3A",
"m  c #157535",
"M  c #29722F",
"N  c #28751D",
"B  c #48511B",
"V  c #7A621E",
"C  c #494426",
"Z  c #594A27",
"A  c #5B5723",
"S  c #504A35",
"D  c #695725",
"F  c #755A28",
"G  c #6D5737",
"H  c #796229",
"J  c #736535",
"K  c #2B7049",
"L  c #197943",
"P  c #715C41",
"I  c #786544",
"U  c #7F734C",
"Y  c #517C62",
"T  c #667465",
"R  c #865C26",
"E  c #886726",
"W  c #956B26",
"Q  c #99782B",
"!  c #9A7433",
"~  c #997938",
"^  c #8C7034",
"/  c #A57A29",
"(  c #A37C33",
")  c #A67C35",
"_  c #90671D",
"`  c #977A45",
"'  c #8D7855",
"]  c #A17E45",
"[  c #0E8335",
"{  c #0D843A",
"}  c #0E8A3B",
"|  c #098836",
" . c #118335",
".. c #12853A",
"X. c #118C3B",
"o. c #168837",
"O. c #0A973C",
"+. c #13923E",
"@. c #149C3E",
"#. c #12A23F",
"$. c #168843",
"%. c #0D9541",
"&. c #139541",
"*. c #149B44",
"=. c #189B46",
"-. c #0D8C40",
";. c #2C8E51",
":. c #15A345",
">. c #16A549",
",. c #15AB4A",
"<. c #19A849",
"1. c #16B24B",
"2. c #1AB44D",
"3. c #1CBC4E",
"4. c #15BC4C",
"5. c #1CAA53",
"6. c #1CB454",
"7. c #15BB53",
"8. c #1BBB53",
"9. c #18B655",
"0. c #0BAE49",
"q. c #26AB58",
"w. c #22B858",
"e. c #2AAB51",
"r. c #37AD65",
"t. c #36B668",
"y. c #32B96B",
"u. c #369E63",
"i. c #4F8954",
"p. c #57996C",
"a. c #4E946A",
"s. c #738E6E",
"d. c #4EB175",
"f. c #6EA677",
"g. c #699455",
"h. c #1AC14D",
"j. c #17C354",
"k. c #0DC452",
"l. c #22C152",
"z. c #34C570",
"x. c #4BC87A",
"c. c #AA8133",
"v. c #A68337",
"b. c #A6812C",
"n. c #9A812F",
"m. c #998657",
"M. c #9A814C",
"N. c #A88647",
"B. c #A98A55",
"V. c #AC935C",
"C. c #B69659",
"Z. c #B28E4B",
"A. c #8E9171",
"S. c #A89369",
"D. c #B79C65",
"F. c #A79468",
"G. c #BAA269",
"H. c #BBA575",
"J. c #8CB172",
"K. c #C3A66C",
"L. c #C8AD73",
"P. c #CBB376",
"I. c #D6B879",
"U. c #C19D63",
"Y. c #DDC07E",
"T. c #789482",
"R. c #71B38B",
"E. c #57CF87",
"W. c #77CC9B",
"Q. c #6FCD96",
"!. c #7FDBA2",
"~. c #9A9C96",
"^. c #899688",
"/. c #A29E9C",
"(. c #9DA397",
"). c #88B793",
"_. c #8DAB8B",
"`. c #A4A29D",
"'. c #A9A59E",
"]. c #AAAA9C",
"[. c #ADB296",
"{. c #99B8A4",
"}. c #AAA5A1",
"|. c #ACAAA3",
" X c #A9A9A5",
".X c #B2ADA3",
"XX c #B4AEAB",
"oX c #A9B4A5",
"OX c #B5B2A4",
"+X c #BCBAA5",
"@X c #B4B3AC",
"#X c #BAB4AA",
"$X c #BAB7A7",
"%X c #B4B3B1",
"&X c #BABAB4",
"*X c #BAB9B8",
"=X c #A8B9B2",
"-X c #CFB884",
";X c #C3BDAA",
":X c #C4BBA6",
">X c #C3BCB6",
",X c #8FCEAA",
"<X c #B8C4B9",
"1X c #AECBB3",
"2X c #99E3B8",
"3X c #A6E2BC",
"4X c #87C19A",
"5X c #C3C3BC",
"6X c #CAC2B9",
"7X c #C3C0AD",
"8X c #C8BBC4",
"9X c #BBC5C2",
"0X c #B9DCC8",
"qX c #ABDFC6",
"wX c #AEE6C7",
"eX c #CBC4C2",
"rX c #C7C8C8",
"tX c #CBD4D4",
"yX c #CBDCD5",
"uX c #D8D9D9",
"iX c #D1CED0",
"pX c #DBE4DC",
"aX c #CAEDD6",
"sX c #DBDEE1",
"dX c #E1DCE2",
"fX c #DEE1E3",
"gX c #D7EDE9",
"hX c #DCF4E4",
"jX c #E2E3E5",
"kX c #E4E5E9",
"lX c #E7E8ED",
"zX c #E9EAEE",
"xX c #EBE7EB",
"cX c #E7F7EA",
"vX c #ECEDF1",
"bX c #E7EDF1",
"nX c #EEF1F4",
"mX c #ECF7F4",
"MX c #F3F4F6",
"NX c #F5F6F9",
"BX c #FAF5FB",
"VX c #F5FBFC",
"CX c #FDFDFE",
"ZX c #F5FBF5",
"AX c #F1EDF3",
"SX c #E0D0DB",
"DX c None",
/* pixels */
"DXDXDXDXDXDXDXDXDXDXDXDXDXDXDXDXDXDXDXDXDXDXDXDXDXDXDXDXDXDXDXDXDXDXDXDXDXDXDXDXDXDXDXDXDXDXDXDXDXDXDXDXDXDXDXDXDXDXDXDXDXDXDXDXDXDXDXDXDXDXDXDXDXDXDXDXDXDXDXDX",
"DXDXDXDXDXDXDXDXDXDXDXDXDXDXDXDXDXDXDXDXDXDXDXDXDXDXDXDXDXDXDXDXDXDXDXnXBXBXCXBXBXZXVXZXMXMXDXDXDXDXDXDXDXDXDXDXDXDXDXDXDXDXDXDXDXDXDXDXDXDXDXDXDXDXDXDXDXDXDXDX",
"DXDXDXDXDXDXDXDXDXDXDXDXDXDXDXDXDXDXDXDXDXDXDXDXDXDXDXDXDXDXDXDXkXbXnXVXVXCXCXVXVXBXCXZXcXaX,Xd.a.DXDXDXDXDXDXDXDXDXDXDXDXDXDXDXDXDXDXDXDXDXDXDXDXDXDXDXDXDXDXDX",
"DXDXDXDXDXDXDXDXDXDXDXDXDXDXDXDXDXDXDXDXDXDXDXDXDXDXDXDXDXDXsXsXbXbXNXVXVXCXCXCXBXhX3XW.d.t.w.4.7.q.DXDXDXDXDXDXDXDXDXDXDXDXDXDXDXDXDXDXDXDXDXDXDXDXDXDXDXDXDXDX",
"DXDXDXDXDXDXDXDXDXDXDXDXDXDXDXDXDXDXDXDXDXDXDXDXDXDXDXDXDXsXsXkXAXMXBXBXCXZXaX3XQ.z.2.4.k.7.j.k.k.3.6.r.DXDXDXDXDXDXDXDXDXDXDXDXDXDXDXDXDXDXDXDXDXDXDXDXDXDXDXDX",
"DXDXDXDXDXDXDXDXDXDXDXDXDXDXDXDXDXDXDXDXDXDXDXDXDXDXDXDXtXsXkXgXAXBXZXhX3XQ.t.6.0.4.4.4.1.3.4.3.4.3.j.7.r.DXDXDXDXDXDXDXDXDXDXDXDXDXDXDXDXDXDXDXDXDXDXDXDXDXDXDX",
"DXDXDXDXDXDXDXDXDXDXDXDXDXDXDXDXDXDXDXDXDXDXDXDXDXDXDXiXtXsXgXbXgX0XW.r.5.,.,.2.e.2.3.3.3.7.8.l.h.j.8.8.6.r.DXDXDXDXDXDXDXDXDXDXDXDXDXDXDXDXDXDXDXDXDXDXDXDXDXDX",
"DXDXDXDXDXDXDXDXDXDXDXDXDXDXDXDXDXDXDXDXDXDXDXDXDXDXtXiXSXtXqX{.d.q.=.:.<.<.<.<.2.2.6.7.7.8.j.8.j.j.j.8.8.6.w.DXDXDXDXDXDXDXDXDXDXDXDXDXDXDXDXDXDXDXDXDXDXDXDXDX",
"DXDXDXDXDXDXDXDXDXDXDXDXDXDXDXDXDXDXDXDXDXDXDXDXDX8X9XqXW.d.;.&.} *.:.:.<.>.,.1.2.6.2.4.3.3.3.h.h.j.k.j.w.8.6.DXDXDXDXDXDXDXDXDXDXDXDXDXDXDXDXDXDXDXDXDXDXDXDXDX",
"DXDXDXDXDXDXDXDXDXDXDXDXDXDXDXDXDXDXDXDXDXDXDXDX{.).p.;.L %.%.O.%.*.=.:.<.,.5.1.1.4.4.4.3.h.h.h.h.h.l.j.k.j.3.w.DXDXDXDXDXDXDXDXDXDXDXDXDXDXDXDXDXDXDXDXDXDXDXDX",
"DXDXDXDXDXDXDXDXDXDXDXDXDXDXDXDXDXDXDXDXDXDXDXK K L v { $.-.+.O.*.*.:.:.>.,.,.,.2.1.4.j.8.7.7.j.l.l.j.k.j.h.j.j.w.DXDXDXDXDXDXDXDXDXDXDXDXDXDXDXDXDXDXDXDXDXDXDX",
"DXDXDXDXDXDXDXDXDXDXDXDXDXDXDXDXDXDXDXDXDXDXz v v -.{ { $.$.$.&.*.*.=.:.,.,.,.1.2.2.7.7.6.z.Q.2XwXqX!.E.l.j.l.j.9.r.DXDXDXDXDXDXDXDXDXDXDXDXDXDXDXDXDXDXDXDXDXDX",
"DXDXDXDXDXDXDXDXDXDXDXDXDXDXDXDXDXDXDXDXDXDXz x v $.n -.-.%.%.&.*.*.=.>.>.0.,.1.2.2.6.t.W.aXVXVXVXVXZXcX2Xx.k.j.w.9.DXDXDXDXDXDXDXDXDXDXDXDXDXDXDXDXDXDXDXDXDXDX",
"DXDXDXDXDXDXDXDXDXDXDXDXDXDXDXDXDXDXDXDXDXz x m n n -.-.X.+.X.&.*.*.=.>.>.,.,.1.1.1.y.2XmXCXVXCXVXCXCXCXZXaXE.j.8.7.q.DXDXDXDXDXDXDXDXDXDXDXDXDXDXDXDXDXDXDXDXDX",
"DXDXDXDXDXDXDXDXDXDXDXDXDXDXDXDXDXDXDXDXDXl x m n n -.v X.$.+.&.*.=.*.=.>.<.,.,.9.w.2XmXCXCXCXCXCXCXCXCXCXCXmXQ.j.l.9.DXDXDXDXDXDXDXDXDXDXDXDXDXDXDXDXDXDXDXDXDX",
"DXDXDXDXDXDXDXDXDXDXDXDXDXDXDXDXDXDXDXDXz l x b n v -.-.X.-.+.&.%.*.*.>.>.>.,.,.5.,XmXVXCXCXCXCXCXCXCXCXCXCXCXhXE.2.8.q.DXDXDXDXDXDXDXDXDXDXDXDXDXDXDXDXDXDXDXDX",
"DXDXDXDXDXDXDXDXDXDXDXDXDXDXDXDXDXDXDXDXd g x c v { { ..-.$.+.&.%.*.*.:.:.>.,.9.d.cXZXCXCXCXCXCXCXCXCXCXCXCXCXCXaXz.2.e.DXDXDXDXDXDXDXDXDXDXDXDXDXDXDXDXDXDXDXDX",
"DXDXDXDXDXDXDXDXDXDXDXDXDXDXDXDXDXDXDXu l a v c { | { -.-.+.&.&.%.*.:.:.>.:.5.5.3XCXCXCXCXCXCXCXCXCXCXCXCXCXCXCXZX2Xj.h.e.DXDXDXDXDXDXDXDXDXDXDXDXDXDXDXDXDXDXDX",
"DXDXDXDXDXDXDXDXDXDXDXDXDXDXDXDXDXDXDXu l z x v n { { ..X.$.+.&.*.*.:.*.:.>.:.d.cXCXCXVXCXCXCXCXCXCXCXCXCXCXCXCXCXcXx.h.7.DXDXDXDXDXDXDXDXDXDXDXDXDXDXDXDXDXDXDX",
"DXDXDXDXDXDXDXDXDXDXDXDXDXDXDXDXDXDXu z Y p.i.m { { [ X.-.X.+.&.*.*.*.*.=.0.:.,XCXCXVXCXCXCXCXCXCXCXCXCXCXCXCXCXCXCXwXl.4.w.DXDXDXDXDXDXDXDXDXDXDXDXDXDXDXDXDXDX",
"DXDXDXDXDXDXDXDXDXDXDXDXDXDXDXDXDXDXz s. X=X{.p.m { [ ..X.-.-.&.%.*.*.*.*.0.q.aXCXCXCXCXCXCXCXCXCXCXCXCXCXCXCXCXVXCXmXE.8.w.DXDXDXDXDXDXDXDXDXDXDXDXDXDXDXDXDXDX",
"DXDXDXDXDXDXDXDXDXDXDXDXDXDXDXDXDXDXT /. X%X9X=Xa.[  ...X.X.+.&.&.&.*.*.+.0.d.cXCXCXCXCXCXCXCXCXCXCXCXCXCXCXCXCXCXCXCX3Xw.2.q.DXDXDXDXDXDXDXDXDXDXDXDXDXDXDXDXDX",
"DXDXDXDXDXDXDXDXDXDXDXDXDXDXDXDXDXK T./. X%X*X8X{.$. .o.X.$.X.&.&.*.*.=.=.:.R.ZXCXCXCXCXCXCXCXCXCXCXCXCXCXCXCXCXCXCXCXcXz.1.w.DXDXDXDXDXDXDXDXDXDXDXDXDXDXDXDXDX",
"DXDXDXDXDXDXDXDXDXDXDXDXDXDXDXDXDXT ~. X X%X*X9X<Xa.[ X.X.X.&.X.&.*.*.*.=.0.W.CXCXCXCXCXCXCXCXCXCXCXCXCXCXCXCXCXCXCXCXZXQ.4.5.DXDXDXDXDXDXDXDXDXDXDXDXDXDXDXDXDX",
"DXDXDXDXDXDXDXDXDXDXDXDXDXDXDXDXDXs.~./. X%X*X*XrX_.{ { X.X.+.&.&.&.*.=.=.:.2XBXCXCXCXCXCXCXBXCXCXCXCXCXCXCXCXCXCXCXCXCX3X7.6.q.DXDXDXDXDXDXDXDXDXDXDXDXDXDXDXDX",
"DXDXDXDXDXDXDXDXDXDXDXDXDXDXDXDXDX^.~. X X%X*X9XrX1X;.[ X.X.} +.&.&.+.*.@.:.qXBXVXBXNXCXCXNXZXCXCXCXCXCXCXCXCXCXCXCXCXCXaX6.1.e.DXDXDXDXDXDXDXDXDXDXDXDXDXDXDXDX",
"DXDXDXDXDXDXDXDXDXDXDXDXDXDXDXDXT ~.~./. X%X*X9XrX5Xa.| ..X.} +.X.&.=.*.*.=.qXCXVXVXBXVXBXBXCXCXCXCXCXCXCXCXCXCXCXCXCXCXhXt.1.,.DXDXDXDXDXDXDXDXDXDXDXDXDXDXDXDX",
"DXDXDXDXDXDXDXDXDXDXDXDXDXDXDXDXs.~././. XXX*X>XrXeXR.[ } } +.} +.&.+.*.&.5.0XBXVXCXMXCXVXCXNXCXCXCXCXCXCXCXCXCXCXCXCXCXcXx.,.2.DXDXDXDXDXDXDXDXDXDXDXDXDXDXDXDX",
"DXDXDXDXDXDXDXDXDXDXDXDXDXDXDXDXT./././. XXX*X*X9XrX{.$.} } X.+.+.+.&.&.@.>.0XBXVXNXMXBXBXNXNXCXCXCXCXCXCXCXCXCXCXCXCXCXZXE.<.<.DXDXDXDXDXDXDXDXDXDXDXDXDXDXDXDX",
"DXDXDXDXDXDXDXDXDXDXDXDXDXDXDXDX~./.~./. X X*X*X5XrX1X;.{ } X.X.X.+.&.&.@.=.0XBXMXNXNXVXNXNXNXNXCXVXCXNXVXCXCXCXCXCXCXCXCXQ.<.<.5.DXDXDXDXDXDXDXDXDXDXDXDXDXDXDX",
"DXDXDXDXDXDXDXDXDXDXDXDXDXDXDXDX~./././. X X*X*X5XeX9Xa.{ X.} X.+.+.&.&.&.=.qXNXmXMXMXCXMXVXNXCXNXCXNXCXCXCXCXCXCXCXCXCXCXW.#.<.e.DXDXDXDXDXDXDXDXDXDXDXDXDXDXDX",
"DXDXDXDXDXDXDXDXDXDXDXDXDXDXDXs.~./.~././.XX%X*X<XeXrXp.{ { ..} } +.&.&.&.*.,XNXMXMXMXMXMXMXMXNXNXVXVXBXVXCXCXCXCXCXCXCXZXW.<.<.<.DXDXDXDXDXDXDXDXDXDXDXDXDXDXDX",
"DXDXDXDXDXDXDXDXDXDXDXDXDXDXDXf.}.~.~.~.}. X@X&XeX>XrXf.[ ..X.| X.X.+.+.@.O.4XmXnXMXMXMXMXMXMXZXMXZXCXBXVXVXCXVXVXCXCXCXCXW.:.:.=.DXDXDXDXDXDXDXDXDXDXDXDXDXDXDX",
"DXDXDXDXDXDXDXDXDXDXDXDXDXDXDXA.(.}.`.}.}. XXX*X<XeXeXf.b o. .X.X.X.+.+.o.O.Q.cXvXMXnXvXvXMXAXMXMXMXMXMXNXNXBXBXNXCXCXVXBXQ.#.:.:.DXDXDXDXDXDXDXDXDXDXDXDXDXDXDX",
"DXDXDXDXDXDXDXDXDXDXDXDXDXDXDX^.}.(.(./.~. XXX%X*XeXrXR.b o.} | o.X.+.X.+.O.d.hXnXzXvXvXvXnXnXnXMXMXBXMXNXNXNXBXBXCXCXCXBXQ.#.:.@.DXDXDXDXDXDXDXDXDXDXDXDXDXDXDX",
"DXDXDXDXDXDXDXDXDXDXDXDXDXDXDX(.}.}.`.`./. X.X#X*X<XeX).b  .[ } o.X.X.+.+.+.u.yXnXnXvXvXvXvXnXnXvXMXMXMXMXMXNXBXNXVXNXCXMXd.#.#.@.DXDXDXDXDXDXDXDXDXDXDXDXDXDXDX",
"DXDXDXDXDXDXDXDXDXDXDXDXDXDXDX`. X`.}./.'.'..XXX&X>X5X).b  . .} o.X.| +.o.O.=.<XzXbXzXvXvXvXvXvXvXnXnXMXMXMXNXAXNXNXNXCXcXr.@.@.@.DXDXDXDXDXDXDXDXDXDXDXDXDXDXDX",
"DXDXDXDXDXDXDXDXDXDXDXDXDXDXDX'. X}.`.`.`.'.}.XX@X<X5X).b [  . .| o.o.+.+.+.+.).zXzXzXzXlXzXvXvXvXzXvXnXnXnXnXvXMXMXNXBXyXe.*.@.@.DXDXDXDXDXDXDXDXDXDXDXDXDXDXDX",
"DXDXDXDXDXDXDXDXDXDXDXDXDXDXDX'.}.}.}.`.`.`.|.oX#X&X6X).m  . .[  . .| o.X.X.o.d.pXcXlXlXlXlXzXzXzXvXvXvXnXvXvXvXvXMXmXMX2X*.+.&.+.DXDXDXDXDXDXDXDXDXDXDXDXDXDXDX",
"DXDXDXDXDXDXDXDXDXDXDXDXDXDXDX'.|.|.}.'.`.'.}.|.&X&X<X_.b [  . . . .o.X.| X.X.;.rXjXkXkXkXkXlXlXzXzXvXzXbXvXvXvXvXzXnXnXR.%.+.&.-.DXDXDXDXDXDXDXDXDXDXDXDXDXDXDX",
"DXDXDXDXDXDXDXDXDXDXDXDXDXDXDX].]..X}.'.'.'.'.|.@X&X<X_.m [ j  . . . .o...o.} X.4XpXjXjXjXjXkXkXkXbXbXbXlXlXlXlXxXxXxXyXu.&.$.&.$.DXDXDXDXDXDXDXDXDXDXDXDXDXDXDX",
"DXDXDXDXDXDXDXDXDXDXDXDXDXDXDX].|..X|.|.'.'.'. X@X%X>Xf.b h j [  . . .| X.o. .X.a.yXpXpXfXjXjXjXdXkXdXkXkXkXkXkXjXjXxX,X$.$.} -.$.DXDXDXDXDXDXDXDXDXDXDXDXDXDXDX",
"DXDXDXDXDXDXDXDXDXDXDXDXDXDXDXoX.X.X|..X}.'.'.|.|.@X*Xf.k h j [ j  . . ..... .o.o.1XpXuXuXdXdXuXsXdXsXsXsXdXsXsXdXdXyXp.-.n } { n DXDXDXDXDXDXDXDXDXDXDXDXDXDXDX",
"DXDXDXDXDXDXDXDXDXDXDXDXDXDXDX[.XXOX.X].|.}.'.].].XX>Xf.g j j b j  . . . .[ [ [ [ a.yXuXuXuXuXuXuXuXuXuXuXsXsXSXuXuX4X$.....{ { n DXDXDXDXDXDXDXDXDXDXDXDXDXDXDX",
"DXDXDXDXDXDXDXDXDXDXDXDXDXDXDX(.XXOXOX.X|..X'.'. X|.$Xp.g k h j  .j [ j  . . . .[ o.).SXiXiXyXyXtXiXSXtXtXtXtXtXrXqXa.v n v n v m DXDXDXDXDXDXDXDXDXDXDXDXDXDXDX",
"DXDXDXDXDXDXDXDXDXDXDXDXDXDXDX[.#XOXOXOX.X].].'.]..XOXi.f f h j h  .j  .j j h  .[ | ;.<XiXrXrXrXrXrXiXrXtX8X8XtX9XT.m v v v v x DXDXDXDXDXDXDXDXDXDXDXDXDXDXDXDX",
"DXDXDXDXDXDXDXDXDXDXDXDXDXDXDX[.#X#XOX.X.X.X.X'.|.|.].i.q g f k g k j j j j  .j h [ v a.1XeX6X8X8X9X9X8X8X8X8X*XR.L x x x x l l DXDXDXDXDXDXDXDXDXDXDXDXDXDXDXDX",
"DXDXDXDXDXDXDXDXDXDXDXDXDXDXDX_.#X#X$XOXOX.X]..X|.|._.M f f h f h h k j j j j j b k c c p.+X6X>X8X*X*X*X*X%X=XT.K l l l l l l u DXDXDXDXDXDXDXDXDXDXDXDXDXDXDXDX",
"DXDXDXDXDXDXDXDXDXDXDXDXDXDXDX(.$X&X$X$XOX.X.X.X.X}._.M 9 f f f g g g g h g h h k m x h z i._.=X%X*X=X%X X_.Y u l y l y l y y DXDXDXDXDXDXDXDXDXDXDXDXDXDXDXDXDX",
"DXDXDXDXDXDXDXDXDXDXDXDXDXDXDXJ.$X#X$X$X$XOXOX.XXX.XA.0 9 p p f f g g g g g g g g x a k x l L a.T.^.^.T.Y z u l y y u y y y e DXDXDXDXDXDXDXDXDXDXDXDXDXDXDXDXDX",
"DXDXDXDXDXDXDXDXDXDXDXDXDXDXDXA.$X$X+X+X+X+XOXOXXXOXs.9 9 9 d p q f f g f g a a a g a l l a s l s l z u y y y y y r r e e r DXDXDXDXDXDXDXDXDXDXDXDXDXDXDXDXDXDX",
"DXDXDXDXDXDXDXDXDXDXDXDXDXDXDXs.$X$X:X+X+X+X+XOX#XOXi.9 9 8 9 p 9 9 p p p p f s a a a s s t s t t y y y y y r r r r r r + r DXDXDXDXDXDXDXDXDXDXDXDXDXDXDXDXDXDX",
"DXDXDXDXDXDXDXDXDXDXDXDXDXDXDXDX].;X;X;X:X:X:X+XOX[.M 9 9 7 9 9 9 9 9 p 9 p p p s p s t t y y e y : - : r e r r r r r r + DXDXDXDXDXDXDXDXDXDXDXDXDXDXDXDXDXDXDX",
"DXDXDXDXDXDXDXDXDXDXDXDXDXDXDXDXJ.7X;X;X7X7X:X1XOXA.q q 7 9 9 9 9 9 8 9 8 s 8 t > t t > t e : : : r e - ; - o + + + + + DXDXDXDXDXDXDXDXDXDXDXDXDXDXDXDXDXDXDXDX",
"DXDXDXDXDXDXDXDXDXDXDXDXDXDXDXDXs.+X7X:X7X+X:X+X[.g.4 2 7 7 7 7 6 8 8 8 8 > 8 > t > : : - : e : r e X X X X $ X + o DXDXDXDXDXDXDXDXDXDXDXDXDXDXDXDXDXDXDXDXDXDX",
"DXDXDXDXDXDXDXDXDXDXDXDXDXDXDXDXDXJ.7X7X7X7X:X:X_.o.3 5 q 7 7 9 6 6 6 > > > > , : : : : : - e X X X # i # # i @ $ DXDXDXDXDXDXDXDXDXDXDXDXDXDXDXDXDXDXDXDXDXDXDX",
"DXDXDXDXDXDXDXDXDXDXDXDXDXDXDXDXDXi.:X7X7X7X:X:Xg.q w 5 7 7 7 7 6 6 6 > > > > , : : : - - ; X $ # # & & & & & & & DXDXDXDXDXDXDXDXDXDXDXDXDXDXDXDXDXDXDXDXDXDXDX",
"DXDXDXDXDXDXDXDXDXDXDXDXDXDXDXDXDXM s.7X6X6X:XJ.k 4 w w 5 7 2 2 2 6 6 6 > < < , < - ; X 1 $ @ @ @ & # & # $ Z & S DXDXDXDXDXDXDXDXDXDXDXDXDXDXDXDXDXDXDXDXDXDXDX",
"DXDXDXDXDXDXDXDXDXDXDXDXDXDXDXDXDXDXM g.J.J.g.N 5 4 q 4 2 2 6 6 6 6 6 > , , , , ; ; ; # # @ & & & & & G S T S.S.' DXDXDXDXDXDXDXDXDXDXDXDXDXDXDXDXDXDXDXDXDXDXDX",
"DXDXDXDXDXDXDXDXDXDXDXDXDXDXDXDXDXDX0 w 5 5 5 5 [ 4 w 4 4 2 2 6 6 6 > > > , ; 1 1 i & & @ # & & S I m.H.' }.-X-X-XDXDXDXDXDXDXDXDXDXDXDXDXDXDXDXDXDXDXDXDXDXDXDX",
"DXDXDXDXDXDXDXDXDXDXDXDXDXDXDXDXDXDXDXw 4 4 4 4 4 4 4 5 2 2 2 3 6 6 < * * 1 1 i & C & C O # S U F.H.H.P.m.A.[.Y.-XDXDXDXDXDXDXDXDXDXDXDXDXDXDXDXDXDXDXDXDXDXDXDX",
"DXDXDXDXDXDXDXDXDXDXDXDXDXDXDXDXDXDXDXDX2 4 4 4 4 4 3 5 2 3 3 = < < * * 1 C Z Z Z Z Z C O ^.A.H.L.P.P.I.S.S ' Y.I.DXDXDXDXDXDXDXDXDXDXDXDXDXDXDXDXDXDXDXDXDXDXDX",
"DXDXDXDXDXDXDXDXDXDXDXDXDXDXDXDXDXDXDXDXDX6 3 2 3 3 3 3 3 = = * * 1 B B A Z Z A Z Z Z & $ .XF.P.P.I.Y.Y.S.  ' I.I.DXDXDXDXDXDXDXDXDXDXDXDXDXDXDXDXDXDXDXDXDXDXDX",
"DXDXDXDXDXDXDXDXDXDXDXDXDXDXDXDXDXDXDXDXDXDX= = = 3 = = < < * = B A D D D D D D A G J ' $ ' F.P.I.I.-XY.S.. G I.I.DXDXDXDXDXDXDXDXDXDXDXDXDXDXDXDXDXDXDXDXDXDXDX",
"DXDXDXDXDXDXDXDXDXDXDXDXDXDXDXDXDXDXDXDXDXDXDXDX1 ; * o * 1 A D D V D H D H H F J ^ V.m.  S ' L.L.-XI.I.S.. G I.P.DXDXDXDXDXDXDXDXDXDXDXDXDXDXDXDXDXDXDXDXDXDXDX",
"DXDXDXDXDXDXDXDXDXDXDXDXDXDXDXDXDXDXDXDXDXDXDXDXDXDXDXC A V H V V H H H H J H J ^ V.G.F.  O P -XL.-XP.I.S.  P P.L.DXDXDXDXDXDXDXDXDXDXDXDXDXDXDXDXDXDXDXDXDXDXDX",
"DXDXDXDXDXDXDXDXDXDXDXDXDXDXDXDXDXDXDXDXDXDXDXDXDXDXDXJ V V V E V V E ^ ^ ^ ^ ~ C.U.G.V.    P K.L.L.L.I.S.  G K.H.DXDXDXDXDXDXDXDXDXDXDXDXDXDXDXDXDXDXDXDXDXDXDX",
"DXDXDXDXDXDXDXDXDXDXDXDXDXDXDXDXDXDXDXDXDXDXDXDXDXDXDXDXV _ E W Q Q n.~ n.~ n.V.C.U.C.V.  . P G.K.L.L.L.H.  P H.DXDXDXDXDXDXDXDXDXDXDXDXDXDXDXDXDXDXDXDXDXDXDXDX",
"DXDXDXDXDXDXDXDXDXDXDXDXDXDXDXDXDXDXDXDXDXDXDXDXDXDXDXDXH Q n.n.b.n.v.~ ~ ( N.Z.C.C.C.C.O . P D.K.K.K.K.K.P ] D.DXDXDXDXDXDXDXDXDXDXDXDXDXDXDXDXDXDXDXDXDXDXDXDX",
"DXDXDXDXDXDXDXDXDXDXDXDXDXDXDXDXDXDXDXDXDXDXDXDXDXDXDXDXM.n.n.n.c.c.v.n.( ) Z.Z.Z.Z.C.V.& % P D.D.U.K.U.U.S.U.] DXDXDXDXDXDXDXDXDXDXDXDXDXDXDXDXDXDXDXDXDXDXDXDX",
"DXDXDXDXDXDXDXDXDXDXDXDXDXDXDXDXDXDXDXDXDXDXDXDXDXDXDXDXDX! b.c.c.c.v.v.) v.N.N.Z.Z.C.V.Z % ' D.D.D.D.D.C.S.] ] DXDXDXDXDXDXDXDXDXDXDXDXDXDXDXDXDXDXDXDXDXDXDXDX",
"DXDXDXDXDXDXDXDXDXDXDXDXDXDXDXDXDXDXDXDXDXDXDXDXDXDXDXDXDX~ / b.c.c.) ) ) ) ) N.Z.Z.Z.V.] J ] C.V.V.V.B.N.B.] DXDXDXDXDXDXDXDXDXDXDXDXDXDXDXDXDXDXDXDXDXDXDXDXDX",
"DXDXDXDXDXDXDXDXDXDXDXDXDXDXDXDXDXDXDXDXDXDXDXDXDXDXDXDXDXDXQ c.) c.c.b.( ) ( ~ ) ] ] B.B.B.B.S.B.B.M.] ] ` DXDXDXDXDXDXDXDXDXDXDXDXDXDXDXDXDXDXDXDXDXDXDXDXDXDX",
"DXDXDXDXDXDXDXDXDXDXDXDXDXDXDXDXDXDXDXDXDXDXDXDXDXDXDXDXDXDX~ ~ b.b.c.c.) / ( ! ~ ~ ] ] ] ] ] ] ` ` ` ! R ' DXDXDXDXDXDXDXDXDXDXDXDXDXDXDXDXDXDXDXDXDXDXDXDXDXDX",
"DXDXDXDXDXDXDXDXDXDXDXDXDXDXDXDXDXDXDXDXDXDXDXDXDXDXDXDXDXDXDX~ / b.c.) ) / ( ( ! ! ! ! ` ! ~ ^ ^ ^ R R G DXDXDXDXDXDXDXDXDXDXDXDXDXDXDXDXDXDXDXDXDXDXDXDXDXDXDX",
"DXDXDXDXDXDXDXDXDXDXDXDXDXDXDXDXDXDXDXDXDXDXDXDXDXDXDXDXDXDXDXDXDX( / / / / ( / W ! ^ W W R W R R R F DXDXDXDXDXDXDXDXDXDXDXDXDXDXDXDXDXDXDXDXDXDXDXDXDXDXDXDXDX",
"DXDXDXDXDXDXDXDXDXDXDXDXDXDXDXDXDXDXDXDXDXDXDXDXDXDXDXDXDXDXDXDXDXDX~ Q / / / / / W W W E R R R R P DXDXDXDXDXDXDXDXDXDXDXDXDXDXDXDXDXDXDXDXDXDXDXDXDXDXDXDXDXDX",
"DXDXDXDXDXDXDXDXDXDXDXDXDXDXDXDXDXDXDXDXDXDXDXDXDXDXDXDXDXDXDXDXDXDXDXDXDX! W W W W W _ _ R R DXDXDXDXDXDXDXDXDXDXDXDXDXDXDXDXDXDXDXDXDXDXDXDXDXDXDXDXDXDXDXDXDX",
"DXDXDXDXDXDXDXDXDXDXDXDXDXDXDXDXDXDXDXDXDXDXDXDXDXDXDXDXDXDXDXDXDXDXDXDXDXDXDXDXDXDXDXDXDXDXDXDXDXDXDXDXDXDXDXDXDXDXDXDXDXDXDXDXDXDXDXDXDXDXDXDXDXDXDXDXDXDXDXDX",
"DXDXDXDXDXDXDXDXDXDXDXDXDXDXDXDXDXDXDXDXDXDXDXDXDXDXDXDXDXDXDXDXDXDXDXDXDXDXDXDXDXDXDXDXDXDXDXDXDXDXDXDXDXDXDXDXDXDXDXDXDXDXDXDXDXDXDXDXDXDXDXDXDXDXDXDXDXDXDXDX"
};
