/* XPM */
static char *_639580519578[] = {
/* columns rows colors chars-per-pixel */
"80 80 182 2 ",
"   c #030302",
".  c #0C0503",
"X  c #0D0905",
"o  c #09070A",
"O  c #0C0B0B",
"+  c #120601",
"@  c #140C05",
"#  c #1B0A04",
"$  c #130E0C",
"%  c #1B0E0B",
"&  c #1F1106",
"*  c #15110D",
"=  c #1B130C",
"-  c #0D0C10",
";  c #120F11",
":  c #180F11",
">  c #0F1114",
",  c #141213",
"<  c #1B1512",
"1  c #151816",
"2  c #1D1A14",
"3  c #151419",
"4  c #191719",
"5  c #1C1A1A",
"6  c #240E09",
"7  c #22140D",
"8  c #2C160F",
"9  c #25190E",
"0  c #2D1D0E",
"q  c #231513",
"w  c #291613",
"e  c #241B14",
"r  c #2B1C15",
"t  c #241D1A",
"y  c #2C1C1B",
"u  c #311716",
"i  c #321D15",
"p  c #3C1F17",
"a  c #331D1B",
"s  c #3A1E1B",
"d  c #3E240E",
"f  c #232017",
"g  c #2B2016",
"h  c #25211C",
"j  c #2C231C",
"k  c #332315",
"l  c #3D2413",
"z  c #352817",
"x  c #3F2914",
"c  c #33231C",
"v  c #3B231D",
"b  c #34291E",
"n  c #3C2B1D",
"m  c #1D1E20",
"M  c #291F20",
"N  c #381F22",
"B  c #242422",
"V  c #2D2422",
"C  c #2D2924",
"Z  c #2D2B29",
"A  c #332523",
"S  c #3B2522",
"D  c #352B24",
"F  c #3B2B24",
"G  c #332728",
"H  c #3B2629",
"J  c #362B2A",
"K  c #3B2C2C",
"L  c #353126",
"P  c #3D3125",
"I  c #36312B",
"U  c #3C332B",
"Y  c #3F382E",
"T  c #3D2F30",
"R  c #353331",
"E  c #3C3130",
"W  c #3F3934",
"Q  c #42250E",
"!  c #46280E",
"~  c #492B0E",
"^  c #432612",
"/  c #452A14",
"(  c #492D16",
")  c #42251D",
"_  c #48271E",
"`  c #442B1B",
"'  c #4A2E19",
"]  c #4C3216",
"[  c #46311C",
"{  c #4D321C",
"}  c #4E391C",
"|  c #513316",
" . c #5B3616",
".. c #52351D",
"X. c #53391D",
"o. c #5B3B1E",
"O. c #603D1F",
"+. c #422623",
"@. c #4A2622",
"#. c #442A25",
"$. c #4B2C25",
"%. c #442C29",
"&. c #4B2D2A",
"*. c #512E25",
"=. c #512E2A",
"-. c #443225",
";. c #4B3423",
":. c #4E3923",
">. c #43342B",
",. c #4D322B",
"<. c #45392D",
"1. c #4C3A2D",
"2. c #523622",
"3. c #553A23",
"4. c #5A3D25",
"5. c #54332C",
"6. c #59352D",
"7. c #533C2C",
"8. c #5B3E29",
"9. c #412E30",
"0. c #423232",
"q. c #4C3431",
"w. c #453B33",
"e. c #4B3D33",
"r. c #453D39",
"t. c #4A3E39",
"y. c #533532",
"u. c #5A3631",
"i. c #533C33",
"p. c #5B3A33",
"a. c #5B3C39",
"s. c #603F20",
"d. c #633F2B",
"f. c #633736",
"g. c #683635",
"h. c #633935",
"j. c #683836",
"k. c #663E39",
"l. c #6C3D3D",
"z. c #3F413C",
"x. c #5D4125",
"c. c #56412B",
"v. c #5D422B",
"b. c #4B4137",
"n. c #47413C",
"m. c #4D433B",
"M. c #544334",
"N. c #5C4433",
"B. c #5D4935",
"V. c #53443B",
"C. c #5A463A",
"Z. c #55483D",
"A. c #5C4A3C",
"S. c #614225",
"D. c #684122",
"F. c #62442C",
"G. c #68452D",
"H. c #64482C",
"J. c #694A2E",
"K. c #624631",
"L. c #6B4731",
"P. c #644932",
"I. c #6A4C35",
"U. c #624C3A",
"Y. c #6B4E39",
"T. c #6A5037",
"R. c #6D513A",
"E. c #4D4541",
"W. c #524741",
"Q. c #554A41",
"!. c #5B4D42",
"~. c #594F48",
"^. c #5E5145",
"/. c #654F41",
"(. c #724041",
"). c #645143",
"_. c #6D5742",
"`. c #645649",
"'. c #64594E",
"]. c #69584E",
"[. c #635A51",
"{. c #685B52",
/* pixels */
"8.8.4.8.8.8.4.3.4.4.c.c.x.} ] / ] ] ] ] | X.X...{ } :.o. .o.X...] { 2.,.3.} c.;.;.:.{ 3.:.{ ( ....Q ] X.{ { ^ ( / ! d d ! / / ! d / / [ } } } [ v.B.B.v.v.T.B.N.",
"8.d.d.4.8.8.8.8.c.c.3.{ / x / x ] ( ~ / ] ......| X.X.X.X.X...X.{ :.,.-.-.n [ F >.-.-.;.n n -.[ ( ( ( { / Q / ! ! d ! ! ( ] ] / d x / } :.3.{ / 3.c.x.x.c.H.H.v.",
"8.8.8.8.4.3.4.8.4.3.{ / x x x [ ] ] ( ( ] ] ] ]  .] ..X...X.:.;.<.1.P b Y L b D L U P -.D D e.-.[ x./ ! { | ..| } X.3.3.c.x.x.} [ ] ^ ] } :.{ / { } } :.c.B.v.c.",
"8.d.d.8.3.7.4.3.[ { [ ] ~ x [ } { ] ] ( ] ] ] { | ..{ :.;.c.P <.b.<.<.t b.U L J L L P r.b R V.b.M.-.[ { F.I.J.S.F.H.J.J.H.P.v.c.3.{ ( / { { ] ( } 3.4.c.v.v.v.x.",
"d.8.8.v.8.8.8.4.} { } ] / ~ / / $.{ { ..{ { { { ' 3.-.-.-.b.h I w.m.Z.f W I Y I L D U b.h w.t.V.Q.n A.B.U._.B.B.v.F.F.S.x.S.v.v.c.4.X.{ ( ^ / / [ 3.c.F.P.v.v.c.",
"8.8.4.v.N.v.8.4.3.{ [ / x x x x ' ' ..' ' ' :.:.;.F b Y L n.U h w.V.^.g I Y U F L D U b.g r.w.Z.w.Y ^.V.Z.c.[ A.N.v.8.4.4.4.v.v.v.v.c.3.{ ( Q ^ ^ { 3.v.v.v.v.v.",
"v.4.3.8.v.v.3.2.[ ' / ! d d d ~ ^ ( ' ( ' 2.;.n w.C e I L b.~.j I e.A.j C W J b b n F I h w.b.M.D b.Q.1.e.b F ^.N.B.K.v.4.4.x.8.c.c.v.c.c.} [ ( / / ] :.v.v.v.B.",
"F.8.3.4.8.3.2.( ( ( / ! ~ x x ~ d _ ( ( ( _ x r J r.m C w.U ^.D r P Z.P e I b n D F D j h U b.1.b b.V.M.;.k Z.e.i.N.B.F.4.4.4.4.4.4.4.x.c.v.8.3.{ / x ] 4.B.P.v.",
"7.3.{ { ' ' ( { ( ( ^ ^ ..8.2./ ! ^ $.^ v c 2 1 t r.n.f I D M.A.2 b b.-.7 J b D F z J h g L w.c Y <.-.1.t r.M.c.F.i.P M.x. .4.3.2.3.4.8.v.8.v.K.8.2.( ! ( 4.j.s.",
"/ ^ ( ( / ( ' ' Q ( ( ( ( 2.2.{ ( $.` c F j * 1 h J E.I e z <.A.f e P -.q h e g e e j f e b F g -.M.<.f F ^.M.P.C.r F b.x.X...4.8.8.8.8.8.v.8.K.H.K.8.*.( ' { _ ",
"d x d x ^ ^ ^ ^ ^ { 2...' ....2.{ ;.n 5 h I Z > 2 C J <.e r j w.U = = g X X X + @ @ @ . * < e = ` >.j f >.b.B.i.2 I [.Z.7.F.F.S.K.d.8.s.8.d.8.F.F.P.Y.d./ Q ! ^ ",
"( / / x ] [ ] { ..2.2...2.3...( ( z e B 5 C E G , e j P <.= 9 j j + + * X $ * @ X * @ .     X O r h 2 L [ 1.1.t C Q.'.A.A.A.K.G.K.d.3.6.F.8.8.8.8.P.Y.d.( Q ! ( ",
"[ [ ] { { :.3.:.{ { ..X.4.3...' ..c @ f B h D r.I 2 e c F b % * & = = < = = = % = 7 = = % o       X 4 J F -.9 B m.A.B.).b.<.B.d.s.3.6.4.8.d.8.8.d.K.Y.K.| ! ! ( ",
"{ } 3.:.} { { { ' 2.3.8.8.8.d.d.c.P = O * t D P m.Y = e e j + % r r q q 7 6 7 6 # 7 # # % = < O     - t c t 2 z.<.C.U.7.#.e.c.4.8.3.o.3.8.d.8.4.8.d.L.d.*.( _ | ",
"} :.3.} { ( { 2.8.v.v.K.F.d.d.K.U b Z V 2 @ e Z P b.D & 7 + q r 8 q 6 w u p @.c v ,.) v 6 # @ X o o     * 4 U U w.1.-.F V.`.N.c.4.3.3.4.d.4.4.F.8.8.d.K.2.| { ' ",
"} :.{ ] ( { c.Y.R.I.F.h.K.d.d.4.2 h I R r.g X 5 z F I t . y a w 6 r N q.6.d.p.+._ p.p.C.y.&.c + o . .     1 j -.F g Y ~.].A.C.B.S.d.4.4.F.4.8.G.K.8.d.K.2.( / ! ",
"..{ ' { ..3.F.R.I.G.F.M.F.D.v.b * 2 h I w.V.1.6 * g e r r i 8 r a %.&.u.6.5.p.@.+.h.p.h.5.&.h.c = . . o     < e t I M.M.A.A.M.N.4.4.8.d.v.v.F.K.N.8.v.K.6.` ^ ) ",
"..{ ..4.4...4.P.H.H.v.c.v.D.7.C 1 O = g F w.w.<.f . 7 k v i S %.c >.,.y.u.5.y.) +.u.6.u.,.7.l.v -.c $   O     t I U <.1.M.7.;.-.U.F.v.v.4.4.F.K.F.8.v.v.2.( ^ ^ ",
"..{ X.H.v...X.F.F.F.S.c.v.v.#.C R C j 2 e r r >.b # 7 r i +.$.y.S %.&.y.5.&.&.H +.5.y.y.,.i.(.+.y.q.M + ; O   ; j D F n n -.M.).U.B.c.v.H.H.F.c.N.4.v.v...^ ^ ^ ",
"/ ( 4.K.x.....v.c.v.x.x.x.4.j 5 f Y m.b.F c e r = 6 i 8 $.i.,.,.S +.%.%.%.9.K K K %.%.&.F 5.l.F @.y.q.y % , - o * t g F M.).).e.i.7.F.v.F.4.8.K.8.8.8.8.*.^ ) ^ ",
"! 3.F.F.3.{ ..4.c.c.o.x.x.-.= 1 h J J F P >.P 7 6 a a v u.a.&.&.c S H K T K J T K H J %.D &.j.x &.=.y.q.q - 4 - O J w.Y U <.M.1.1.c.c.v.x.v.v.F.v.4.8.7.' ^ ^ ^ ",
"{ v.I.4.{ ..X.3.o.7.3.S.c.n 1 1 e h b J D D -.e c #.v 5.&.y.&.&.c S K U T J G U J J J 0.J >.h.$.y.y.=.a.+.% 4 3 X m I <.U -.1.e.<.1.:.v.H.F.4.c.8.4.8.3.( ) ^ ^ ",
"3.x.F.3.....3.2.o.4.c.S.3.b h h 2 = e g j c j w c v ,.5.u.y.y.%.a S H J K K G K J K K E K w.j.$.&.y.=.f.y.u 3 ; O O h j g g k D U ;.N.B.v.3.4.F.v.7.8.3.( ^ ^ ^ ",
"4.3.....3.3.o.3.o.4.x.x.:.h B D w.U Y J F c 7 e H S 5.=.=.y.+.%.a H N A J G H K D %.J G D q.j.' q.y.=.y.a.N ; 3 - O 5 C P <.b.Z.V.b.c.x.v.H.v.4.v.8.8.3.( ) ( ) ",
"x.X.{ ..3.2.3.3.3.o.o.4.c.= 2 f C U >.e.A.C.S v $.#.6.6.5.y.+.+.a +.H K K J J K J R G T K q.k.) &.y.&.5.p.%.< 4 3 * D r.<.F -.w.;.;.n 4.4.4.v.c.v.v.8.2.' _ _ ( ",
"3...{ { ..3.3.2.4.3.X.3.-.* 2 f e D S P <.<.A %.#.#.y.5.=.q.+.%.v H J H K J K K K K G H K &.k.$.$.q.#.=.u.&.q < 4 O 2 C b j b K P n b M.v.F.v.v.c.8.2.2._ ( ( ' ",
"2...( ( ......3.3.o.o.c.n = * = = e e j j b y D F %.,.,.&.,.S #.a H A G K G J J K G A J D #.f.` +.&.+.=.y.9.q 3 3 o $ < e r e r f g j 1.c.8.4.8.8.4.2.' ( / ' 7.",
"3...( ] ....3.3.2.X.X.c.b C I J <.e.w.<.<.>.j c v #.5.5.5.&.v H M S G J T E T T T J H T J >.f.) #.#.%.q.y.&.t ; 4 3 t I r.V.e.e.e.<.<.M.B.G.d.v.8.2.' ' ^ ^ ' 6.",
"x.3.{ { ......3.3.4.3.;.e f C b U <.<.<.<.<.F v v $.y.=.5.=.S +.y A G S K U K T H J H E J &.u._ H %.%.&.&.+.t 3 < , h P w.w.>.>.>.>.;.[ 3.F.v.v.3.{ ( ( ^ ) 2.K.",
"F.3...{ ....X.2...2.3.:.e f j j b P F b k n c #.S +.=.=.5.q.N H q y A A G G a G A M S K D %.=.v S H %.%.+.A q , ; $ e j b -.F >.,.<.,.;.v.H.x.4.{ ( ( ^ / _ 4.P.",
"F.4...........X.4.2.3.' 9 * * f e f j b g b b ,.H v #.&.=.&.N H y M G S H H y V y c H +.J +.%.A a H H %.+.A : ; 3 O * = 9 e r g r c g F 8.4.3.' / ( ` ^ ^ ( 8.K.",
"K.4.{ { ......3.:...8.5.c , , f h j b J C j r F J a S +.%.%.A M w a S S #.F y y t A +.%.J N N t w A A H +.H < 3 3 o , 5 t h j f h j g -.K.2.' ^ ^ ( ( ^ ^ ) 2.8.",
"v.8.2.:.' ..{ :.3.X...2.b V G L <.V.V.).A.N.F F K G G J T T J G J J J J R T J H J H U T K K G G K J J T 9.9.G M 3 ; t E R >.<.>.;.<.-.;.{ { ( x ( ' x d ^ ( ' 3.",
"4.2.2.' ( [ { X.{ { ..,.j t j C P <.b.V.M.7.n F G G H J G J K E 9.T 9.T K G J T K E T K K K J J K J T T %.9.T M 4 $ < C D b F F n P P ` ' ( ( [ x ( ^ d / / [ 2.",
"{ { ' ( ' { { { 2.:...:.g f g b I w.e.i.M.1.F S A A J J J J J 0.0.0.0.0.E K H 9.%.0.0.9.K J J J H J R K K 0.T M 5 $ < t j j F S -.-.>.;.' ^ / ( x ^ ^ ^ ( ` ( [ ",
"/ ' ( ' { ;...2.4.c.4.:.f * 2 2 g c c c n n i S q q t M M M M V G M G M A V G T 0.0.0.K K K R T T J K K K 0.T y 4 O $ 2 2 9 e e 0 g c k l x ^ ^ ^ ' ^ ' ..:.( { ",
"/ / ' ' { ;.2.3.2.:.2.5.b h J R <.m.Z.!.C.1.k c V t y y M A t y M M M y y A J K K 9.H S G G G T J G G D D K K t < * h I Y Y w.b.<.<.<.-.;.( ( { ' ' ^ [ 4.3.[ ( ",
"^ ` / ^ ( ( { $./ / ^ x = = j I r.Z.V.Z.V.c.F w.t q 7 q q q % < $ q w q w t q < : w w w w w w w q y y a r r q % 4 , 5 I J L Y U P F #.#.` ' ( ;.[ ' ^ ' 4.v.{ ] ",
"^ ^ x ^ ^ ^ ^ ` d x Q d = 1 j C I b.b.e.b.;.S >.s i a s s s r y w N %.%.+.+.a q w u v +.+.+.s a a +.9.@.@.+.M < 3 O , h j b F P F D S F / ` { ( ' ' ^ ( 7.8.2.{ ",
"` ^ Q x l ^ ^ ^ ^ / ^ l * * 2 2 g F -.` ;.#.v -.N s +.&.=.%.s v a N &.&.&.+.N N a +.%.$.2.&.@.+.+.y.5.@.*.=.N : 5 O * 2 t r g k b b b c / ^ / ^ ` / ^ / :.3.5.X.",
"{ ( ( ( ` / ( ^ ` ( ^ ` C 4 m 2 h b j j j r j F s #.%.$.=.%.H v y S +.&.+.S +.A N &.&.&.5.5.=.) %.y.y.@.+.&.+.: 1 , 1 h h C j b C j b #.[ ^ ^ / ' ' ^ ^ ( 2.2.7.",
"{ [ [ ( ( ` ( ( ' ( { b j C I Y m.Q.V.M.e.-.F %.S $.$.=.=.&.#.S r S +.$.+.S +.N s &.&.,.5.6.6._ S =.y.%.+.&.N ; 1 , t U w.m.m.V.1.i.M.N.1.^ d d [ { / ^ ( 2.2.{ ",
"2.{ ' ' ( ' { ' :.{ { k e B h b U <.-.P n b c #.S #.&.&.=.&.+.S r N S +.+.+.#.N v &.&.=.5.5.=.@.a %.q.+.+.#.M < $ , < D D U U >.>.1.7.7.;./ ^ d ^ ^ ^ ^ ' :.2.{ ",
":.{ { ' [ ( { ;.{ { { 0 * 2 h b F U <.-.D k c ,.v $.$.=.5.&.%.a w N +.+.#.+.#.N v &.=.5.y.6.=.v a @.#.S H S w 3 3 $ $ h j b J -.-.-.>.;.` [ ' d d x ^ ^ / ( { ..",
"2.{ { { [ { { ;.{ { { k X o @ = * 9 f e g e e S S $.&.=.y.&.+.c t S v +.$.+.#.+.a =.5.5.7.u.5.S a S +.A D v q O 3 - o * = = = 9 e e r k v ' ( ! d ^ ( ^ ^ ^ ( ;.",
"{ [ { $.{ { ' { [ { :.F j B C b P D D b b b e v v %.$.=.5.,.#.a t +.+.+.&.#.+.+.a =.5.6.6.h.6.+.c H H G K D t ; - O , C L I U >.Y >.>.-.` ^ ^ d d Q [ ^ d d ^ ' ",
"( ' ( ' ' ( ' ( { ] [ g t Z I >.w.Y <.>.<.>.c #.v #.$.*.5.5.#.c y H +.+.%.#.%.+.a $.&.7.p.6.*._ a a M J J %.M 3 > - < J >.e.e.M.A.A.C.N.:.' ^ / ^ ` ( / x d ^ ^ ",
"^ ^ ` ( ( ( / / / / 3.k 4 B j P L n b g z c c y.v $.#.$.5.&.#.a w #.+.+.@.+.+.+.y @.$.6.N.6.*.) y y y A A %.A , < * = j D -.` -.4...:.2.[ ^ ^ ( 4.4.3.;./ ^ d d ",
"^ ( ( { { ( ^ ( ..d.d.r * 5 M h L F J D b g c ,.v %.#.&.&.,.$.a q %.v +.&.#.$.@.a +.#.6.h.5.&.+.A y q V C c M : < ; * V D P P >.1.1.>.` ` { 3.F.P.P.K.P.K.3.( d ",
"d ^ ^ ( { ] ( ( K.L.H.k * X X < = = @ = e 9 r v c &.%.=.5.$.&.S w F s +.&.$.&.s a +.&.5.6.5.5.) a a q q q w a : 3 ; o < = = 9 r 0 i k l ] c.F.H.v.8.8.F.K.F.8.3.",
"/ ! d ! ( ( ( ..K.G.K.<.h h V L I D J Y Y b g F v %.&.=.2.$.#.A q H a s $.&.>.s u #.,.5.6.6.5.@.A +.a w w u a 3 ; 3 2 I 0.w.e.M.B.N.i.M.U.T.v...] ( ( { X.4.4.4.",
"X.{ / Q ! ( ..4.H.G.d.F 1 B h h D F P >.P c S 5.v %.&.5.6.&.#.S q S s v &.&.&.s a #.$.5.6.5.6.@.v &.$.+.+.+.a < ; 3 , A P >.<.M.7.7.1.c.v.c.X.....{ ( ' { ..3.4.",
"x.x.X.( / / ..4.I.G.c.z X 1 2 = e c c c j i S ,.v @.&.5.6.&.$.v t S S +.&.$.,.) a H $.5.6.;.=.@.r &.=.&.=.=.S < 3 , ; B C P U >.;.;.-.{ { ( { 4...{ ( ] ' ....3.",
"3.c.3.3.] / ( 3.4.3.x.z X * 2 2 2 j j j j g c v a +.+.5.5.2.,.v i #.#.&.&.$.,.+.s @.#.5.6.$.*.@.r &.&.$.=.6.+.< - O X 5 g V c F P ;.#.n [ X.....{ ] ..{ ( ( ] ..",
"} 3.4.3.../ ^ { ] ( 3.z O O * * = 2 e e h r r v a +.#.5.5.2.&.S a F +.&.=.,.5.) s %.@.5.5.5.5._ i ,.&.+.=.6.,.q 4 3 @ < < e e g 9 0 g z [ 3.X./ ....3...| ......",
"2.3.} :.{ Q d ( ( ..c.z 5 h Z j J E w.t.w.F c S c #.&.y.6.*.&.@.y #.+.$.5.6.y.p +.&.&.:.6.7.6.@.a y.y.@.@.6.,.q $ < 5 I W n.m.Z.'.{.].A.M.c.{ { ........( ( { ..",
"{ :.3.{ { / d ( { ..{ g 3 * 2 h j D b D n c v v a +.$.7.6.*.,.+.y H #.#.=.6.,.v v ,.$.2.u.6.5.#.a >.P ) $.6.S 2 ; < < C I I 1.Z.U.B.U.N.1.B.P.3.....{ ........{ ",
":.3.:.;.{ ^ x ^ ' | 2.e O = 2 f D L L D D b F #.S #.$.6.6.5.&.) y S +.` *.6.5.) v ;.&.6.6.6.6.@.a %.#.$.*.5.S < ; O O h C b F w.M.e.e.1.;.B.P.x...{ ....X.......",
"} 3.:.{ { ( d ( ( ( { q O * 2 2 f j D b b c k c s %.$.6.h.2.#.p i v +.@.2.6.5.) v $.$.6.6.2.5.@.a H #.%.,.5.A ; 3 ; o < e 2 e j G D b b ` B.F.o...{ ..3.3.2...{ ",
":.:.} [ { / x / _ ( ' V 5 = = t = = g g c b a S a #.#.,.y.&.v a y a v S #.&.+.i a F $.5.6.&.$.@.a S F #.,.%.y % ; ; o X * e = 9 r g r i n v.4.| ......X.3.......",
":.:.[ [ [ ^ x ^ ` d ` D R K U E.>.b.^.^.A.M.c v y A H S K S y y t M N A H H A y w A A H +.S A a y a A S +.v y : > 1 > h I n.m.m.C.).A.i.7.v...] ] ....3.......{ ",
":.} ] [ { ^ d d ` d k = 5 B j U <.1.1.;.1.#.c +.M V V A A V A A A G A S G A A M V G A H K K S J J S S H D D G B 3 > X t C J J >.7.N.B.7.[ ;.] { ....X.2.2...{ ..",
":.} x [ / ^ d d / ^ i . > 2 e h F P n b F v a A G G J J J K J T K T J J G A A A C M V V G A A D J A G M b V G M 1 * o 2 j b b -.-.1.1.1.$.{ ..3...2.3.3.......2.",
"{ [ x x ` ^ d ^ v ^ i X - * % = = e 9 0 c g t V A V A G V G G G A A A H G A V V V V A A A G A J J S K H A V J h 3 , X = 2 e r c b b b F -.:.......o.3.3.......2.",
"^ ( / Q ! | ..! ' ! d = > X * * < = = e y q y q t B M j V A V V G V M M M M V G Z V G G G S G G A G G G A A A V 3 , * 4 j z b v x n n n :.,.3.8.2.3.2.2...2.2.8.",
"( / Q / *.3.4.6.....( e B h j J U Y >.w.>.c b q q t t q e t y t t t t M M y V V V V A A c G G A G J G G A c A B , , , C W <.e.A.A.U./.Y.Y.v.2...{ 2.2.2.2.2.2.2.",
"( Q ! ..F.F.G.L.v.S.:.# 4 4 e C D F A v c 8 c a % q q q q q q : < < 2 q r q q q q e q r r c i w q t q w r r t < 3 $ O h I z b -.1.5.7.7.4.3.{ X.2...2.2.2.2.2...",
"( ! ..G.Y.L.H.I.I.J.c.= 1 < e C g j c g c i S v w a N A s r y q < q q w a r a w q r a a n +.) i 7 r t y a A y < O , X , h h g G $.-.-.-.;.3.X.4.2.2.{ 2.{ ;.( ) ",
"( ..4.H.H.F.d.v.F.x.1.* X $ = < e e e t k r v c v #.$.=.@.+.s w q t y a v v S s u +.+.$.,.6.=._ i A a H +.#.A q O , O O 5 e e e g j c k n :.2.2.4.2.2...{ _ / ^ ",
"3.G.K.v.8.8.v.S.H.v.1.h 4 9 t e g h r j c j F A ) &.$.=.@.+.+.i q y u N v s S s a @.@.&.*.5.6.*.a N M a S #.H w , 3 * < V g e g f j g i b ;.2...3.2...' ( ^ ` ( ",
"G.L.H.d.4.F.F.F.x.x.n h B n P I >.>.w.m.V.-.>.S S 5.@.=.$.+.%.r t y a a s S v v i $.$.2.5.2.u.*.r N a a +.#.H w , ; , C w.n.b.m.b.Z.Q.Q.M.7...( ' ' ( ( / / { 2.",
"H.v.4.4.F.F.F.4.S.c.e 1 5 g g V F D F -.-.v v l c %.+.$.&.+.H w q q r a a a v a u ) ` ,.$.' =.*.e y y y c H A % > $ * 2 D D n c n #.-.%.-.` d / ^ ( ) ^ ^ ( 5.v.",
"F.F.F.d.8.F.F.F.4.7.e X 1 1 t t j b F D S c v v ^ ) #._ ) v l i 7 w i a v v S +.` _ $.*.*.*.{ { N c y a S F A w , O o 3 h C g e t j D b g k ! / / ! x ^ ( *.2.2.",
"4.8.4.x.F.F.F.4.G.4.0 # $ + = 7 e r g k k v / _ l ` ` ' ' #.` ` x ^ { 3.K.Y.R.Y.K.8.8.3...3.2.o.4.x.x.c.v.H.F.x.D r = = = 2 9 9 0 9 0 e r x ( / / ^ ^ / ( ' 2.5.",
"4.4.4.F.F.F.F.8.d.G.3.:.:.;.;.` ;.` x n / / / / / ( ..3.3.3.2...| } X.o.x.D.S.x.4.2...X.o...] |  .o.S.S.S.S.H.H.H.c.3.:.;.;.;.:.:.-.[ -.;.:.{ ^ / / ( { ..2.5.8.",
"4.4.4.F.F.H.F.x.3.s.4.F.F.4.v.4.8.3.{ [ { { | { ( ..4.v.v.v.4.4.4.4.o.X....... .X.| | | | ( ~ ~ ..3.G.H.G.G.H.F.O.D.S.S.S.v.c.x.c.H.v.B.K.8.' ! ^ ( 2.3.2.7.3.8.",
"4.S.F.F.K.H.F.d.F.S.s.S.S.d.S.4.8.2.' ' { 3.2.3.{ 3.4.x.v.8.3.4.x.c.3.x.3.X.3.o.4.X.] | X.} ] ] |  .S.S.H.S.x. .S.H.H.S.S.s.s.O.o.x.F.F.v.3./ ^ ( 2.7.3.2.3.7.8.",
"F.F.F.F.F.G.F.F.4.4.4.F.S.F.x.3.4.2...( { 2.2.2.3.3.3.4.4.3.3.4.o.X.} } X.} } ] X...} o.X.X.] ] | o.S.H.H.S.S.S.x.F.S.S.s.s.o.o.x.x.4.o...] ( { 8.v.F.8.2.8.8.p.",
"H.H.F.F.F.F.4.4.x.4.F.F.F.v.4.X.{ ( ( ( { 2.:.2.3.3.3.c.4.3.3.4.X.} } } X.o.X.] } } 3.x.x.X.] d ( ..s.F.S.S.S.S.4.x.S.S.S.x.s.4.F.v...( { ] ( { N.K.K.v.8.p.K.K.",
"L.K.F.F.F.8.4.4.o.4.S.4.v.F.4.4.{ ] ( { { 3.2.3.3.4.4.4.3.3.....} } ] } } } } ] } } } } X.X.} ( ~ |  .x.G.S.S.x.o.o.o.s.S.x.x.4.3.X.( ( 3.v.3.3...8.v.N.K.K.K.8."
};
