/* XPM */
static char *_7949200545841b5813a223fa1c874c4TcsbHvUa7VAlEXTR[] = {
/* columns rows colors chars-per-pixel */
"80 80 156 2 ",
"   c #2F1500",
".  c #331700",
"X  c #371B05",
"o  c #3A1D07",
"O  c #3A1E09",
"+  c #3A2007",
"@  c #3E230D",
"#  c #3F2410",
"$  c #3F2912",
"%  c #41250E",
"&  c #44290E",
"*  c #422611",
"=  c #452A14",
"-  c #492D16",
";  c #472B18",
":  c #4A2E19",
">  c #502D17",
",  c #4B3116",
"<  c #47311A",
"1  c #4D321C",
"2  c #513317",
"3  c #51351D",
"4  c #53391E",
"5  c #593A1D",
"6  c #4E3420",
"7  c #4E3823",
"8  c #533621",
"9  c #5A3721",
"0  c #553923",
"q  c #543822",
"w  c #543A23",
"e  c #563A22",
"r  c #553920",
"t  c #543924",
"y  c #553B24",
"u  c #553A25",
"i  c #573B25",
"p  c #563B26",
"a  c #543C24",
"s  c #553D25",
"d  c #563C25",
"f  c #573D26",
"g  c #573C27",
"h  c #563E26",
"j  c #573F27",
"k  c #553A23",
"l  c #593B23",
"z  c #583924",
"x  c #593A25",
"c  c #5A3B26",
"v  c #583C24",
"b  c #593D25",
"n  c #5A3C24",
"m  c #5B3D25",
"M  c #583E25",
"N  c #583C26",
"B  c #593D27",
"V  c #5B3C27",
"C  c #583E27",
"Z  c #5A3E26",
"A  c #5B3F27",
"S  c #5C3C27",
"D  c #5D3F27",
"F  c #5A3C25",
"G  c #573A28",
"H  c #593F28",
"J  c #593E29",
"K  c #5A3E28",
"L  c #5B3F29",
"P  c #5C3D28",
"I  c #5D3D28",
"U  c #5D3E29",
"Y  c #5E3E29",
"T  c #5E3F2A",
"R  c #5C3E29",
"E  c #613E24",
"W  c #623F29",
"Q  c #5D4126",
"!  c #584028",
"~  c #594129",
"^  c #5A4029",
"/  c #5B412A",
"(  c #5B432B",
")  c #5C4028",
"_  c #5D4129",
"`  c #5E4028",
"'  c #5C402A",
"]  c #5D412B",
"[  c #5F402B",
"{  c #5C422B",
"}  c #5E422A",
"|  c #5D432C",
" . c #5E422C",
".. c #5F432D",
"X. c #5C442C",
"o. c #5D452D",
"O. c #5E442D",
"+. c #5F452E",
"@. c #5E462E",
"#. c #5F472F",
"$. c #5E412A",
"%. c #5F4230",
"&. c #624226",
"*. c #60402B",
"=. c #60422A",
"-. c #61432B",
";. c #60412C",
":. c #61412C",
">. c #61422D",
",. c #60442C",
"<. c #62442C",
"1. c #63452D",
"2. c #60462F",
"3. c #63472F",
"4. c #65472F",
"5. c #64462E",
"6. c #62442B",
"7. c #69462C",
"8. c #65482E",
"9. c #69492D",
"0. c #614730",
"q. c #624630",
"w. c #644631",
"e. c #614931",
"r. c #624831",
"t. c #634932",
"y. c #624A32",
"u. c #644830",
"i. c #664830",
"p. c #674B33",
"a. c #664A32",
"s. c #654D35",
"d. c #664E36",
"f. c #664932",
"g. c #694B33",
"h. c #694D35",
"j. c #684C34",
"k. c #6A4C34",
"l. c #6D4F37",
"z. c #6A4C34",
"x. c #6C4E39",
"c. c #714E38",
"v. c #6D5136",
"b. c #6D513A",
"n. c #715236",
"m. c #73553D",
"M. c #73573F",
"N. c #72543D",
"B. c #755740",
"V. c #755941",
"C. c #795D45",
"Z. c #7A5A43",
"A. c #785F49",
"S. c #796149",
"D. c #84664E",
"F. c #8A6A53",
/* pixels */
"*.I I I I I c i w f ( ( ! 4 < = 2 , , , , 4 4 4 2 4 4 v 4 8 4 4 1 3 8 8 8 8 7 8 t 6 8 t 7 : < 8 w + * ! a 1 1 , & & @ @ & , = & $ @ , < 4 4 4 < #.y.s.X.@.d.s.o.",
"I S S I K V K g O./ ! 1 = $ $ $ 1 > - , , 2 2 2 1 2 4 4 4 3 3 3 1 1 7 8 7 8 8 1 < : 1 8 1 = = = < , 1 1 @ + @ @ @ & $ & & , , & $ $ & 1 7 ! 1 & ! ! ! 4 ! y.#.! ",
"I I I I c c K K i 7 , = $ $ = < : : ; ; 1 1 , - 3 3 3 4 9 8 8 8 8 8 8 8 6 6 : 1 < : : : ; * * : - 2 , % * 2 3 3 4 4 B B ! ' f 4 , = = < 7 ! < $ < 1 1 1 a #.@.a ",
"*.>.>.I c i c K = : < = = , < 1 : > ; > 1 , 1 1 3 3 3 1 8 8 8 9 8 8 7 1 1 6 : : 6 : = # * ; 1 t 1 1 + & a.M.a.i.@.p.k.p.k.p.3./ a 1 = * < < , = 7 ! ( ( o.@.@.f ",
"*.>.W I K I K ' 1 1 4 , = & $ $ 6 6 6 6 6 > : 6 < 1 : : > 6 6 6 8 8 7 < : : : : : = = = : 6 t f 8 - % 4 C.V.' Q Q ,.>.Q ! ' *.Q / ! 1 < * & * * < ! @.y.y.O./ / ",
"I c K I >.>.' K 7 4 < = $ $ $ & > > : 6 6 6 6 > 3 1 : 6 6 6 6 6 1 < : : : : ; : @ = ; : 7 i t w 1 1 8 k.V.5.l ' n ! B q 4 B ! Q O.O.O.f 1 = $ @ $ < a o.O.......",
"' B i K ....g 8 < , = $ @ @ & , * ; ; 6 : ; 6 6 1 6 6 6 8 6 6 6 : ; ; = = ; : : : : 1 < 1 i i 1 = > 5.m.k.*.5.8.5.8.8.&.m S *.,./ / ..( / w < : $ & , 1 / ..O.O.",
"q.' B B ..K 3 = - = , & & @ $ $ # ; ; ; ; ; ; 6 - : 6 6 6 > : ; = = = = = = ; : K G 6 ; : t g i - 4 g.l.' 6.k.Q k.k.z.,.m n n 4 B a v f ( O...J , & $ , f y.y.O.",
"f a 1 , = = - 1 1 = % % 8 i.c % # ; : * * ; : ; ; ; ; * * ; ; = ; = # # = : 6 8 6 : ; 1 6 : = = & *.g.*.8.k.*.Q g.g.i.6.S 9 q l t 8 9 T ..J ..q.T G : # ; W W 9 ",
"* = , = - < - 1 @ = : ; ; 8 8 3 - : : ; * * ; * ; ; * * * * = = = # # * : 6 < 1 < : : 1 1 = * * = *.g.6.5.8.*.S l l 8 4 4 5 4 8 T T J T ..J / %.f.f.W > * > G * ",
"$ @ @ $ * = * * * 3 c 3 : 1 8 c 1 1 1 = * * * * ; * * * * * * * = # # * : 6 < : : : < 8 6 ; = = > g.c.5.,.6.&.S l 4 5 9 S W W W x.T Y Y T I T W T x.B.I * # * # ",
", = $ $ = , , < q i 8 3 9 9 3 : : - - * * ; ; * ; ; ; * * * * * : : = : ; : : : : : : 6 : ; : 1 8 c.N.9.5.*.*.*.*.S S W i.z.g.i.w.S t S >.q.T >.G T Z.W * @ > * ",
"< < < 1 4 a a B 1 1 > 8 9 V 1 ; 1 , - - - & & & ; - % % & * - 1 < 7 t < ; * = : : : : : = $ ; 6 I c.N.6.6.E S *.5.E S E 6.6.6.W Y 9 8 x W T T T T w.B.w.> # * ; ",
"< 4 4 ! 7 1 < < ; 1 G Y S S W S ' / ..Q 4 - - - * % % % * 1 4 n 8 i K t : * = : : = = * # # * - W g.g.I S S l W *.S c l S S 9 5 x 8 8 S T T G G T W f.w.6 ; > > ",
"< ! ! < = = : 6 S T w.w.q.W W g.p.v.v.v.S , & , % & % - , 3 4 B i K / g t : = * * # @ $ = * = - 6.g.6.S E W l *.*.*.E S S l c l Y G G G T T G T T G W W 9 > > > ",
"4 4 1 < = < ..b.B.x.w.w.W q.S S 5.p.v.9.4 & % & & - > > 2 4 3 3 i B K ....t : @ # O @ = 1 1 : < 7.g.6.S 6.7.&.7.6.6.6.E E S E W W x I T T T W x.W G T B.6 ; ; # ",
"< < , , 1 4 5.N.a.5.' ' ....Q Q ' 3.1 + : 3 * & - - : 1 3 q q l W W w.7.6.*.4 & @ @ , 1 1 , , 1 n.7.E E E &.7.7.E 7.E 7.7.E 7.E &.' ..Q ' ..O.5.O.f ..r.6 ; ; ; ",
"! , 1 B B 3 v v.8.,.' ' } } ..Q q q 1 - q K 1 ; : : 1 3 q q c B W W W W 6.6.5 - & @ @ , , = & & c.7.&.E E E 7.7.&.&.7.7.E 7.E E } Q Q ! Q ....5.q.f ..q.G ; ; # ",
"4 = 4 a.8.1 1 3.5.' Q ' } } } } q - - q i i 3 ; : 1 3 8 i B B I W W W W 6.6.S 3 & @ + @ = , , 1 7.7.&.E &.7.&.7.7.&.7.&.7.7.7.E &...Q Q Q ........g J %.6 ; ; * ",
"& , ! p.' 1 2 ' Q ' B Q } } } } O.= - K 8 3 1 & 1 3 8 i B B I ' Y W W 7.i.i.*.m , = & @ @ = 4 n &.7.7.&.E 7.&.&.&.7.&.7.7.E 7.&.} ....} ..' ......G J T > # ; # ",
"+ w a.,.4 1 4 n v B ! ! ' Q ' Q q.: 3 q.>.i 1 * 1 8 i K K K ..>.S T i.g.g.9.W l Q S 4 * o % 3 *.E &.6.&.E 7.6.&.&.7.&.7.E 7.E &...} } } ' ..*.' ..G J K : ; ; # ",
"- 5.v.Q 1 1 n q v B Q Q ! S ! Q c : t x.b.q.i 1 1 8 B K ..K ....W W w.z.g.*.l q 5 Q B , @ & 5 a.5 &.7.&.E 7.&.E &.&.7.7.7.&.&.E Q ....} ,.,.' ' ..K K G ; * ; * ",
"q ,...q 2 4 q 4 v n Q Q S n n ! i 8 8 K a...1 : 1 8 K K K ......5.*.6.i.5.q 2 3 , 4 n 1 & = 8 &.5 6.6.E E 6.6.E 7.&.&.6.7.&.&.&.&.....,.,.Q ' ! ..K J i ; * ; ; ",
"Q q 3 8 q n 4 q 4 B ' ! n v n n ....- * 3 1 % = 1 8 K ....K / 5.5.>.>.W S 3 > > 4 S S 2 * & & = 2 W 7.E S 6.7.E 6.6.7.7.&.7.&.&...&.} ,.....' ' ..J ..t ; * ; * ",
"' q 1 2 l 4 4 4 l l q n v ! n ! K i < * % o % = : 8 ' >.' K ' ..B Q ! l 3 2 3 4 4 9 l Q Q - % = 5 6.g.6.&.S &.*.&.7.6.6.&.*.&.,.*...} } Q ! ' ' T W I G 6 ; ; ; ",
"B 2 1 1 8 8 8 8 l q q l v v ! n B 8 1 * * * ; - - 4 B I f q i i l q q 4 2 3 3 9 8 l S *.l 1 - > - E n.n.6.*.&.E &.6.6.*.&.&.E Q n Q Q ..' Q ' ' T G G 6 ; ; ; 6 ",
"4 1 - , 4 8 q 4 v q v q v n n ! S 3 ; = ; - 1 < : 3 i i 8 8 1 3 3 1 4 3 2 3 4 9 l 2 W 6.2 2 W S - 2 m &.8.g.5.*.*.*.,.*.,.*.*.&.n ! Q ..,.Q ' ' T G 6 ; ; # ; G ",
"l 1 - , 4 4 4 q 4 4 v n v v n B I 3 = & : 1 - * < 3 q i i 8 8 3 1 4 1 3 3 4 q c l 1 W *.- 9 c.i.S > % = S l.l.a.5.8.9.g.g.g.g.a.} ..' ' ' ,...' T G 6 ; ; # 6 T ",
"' 4 , 2 8 3 q q q q n q n n B n B 1 * * 1 w : * : 1 8 8 q q q q a 1 4 1 8 q q n I 3 I S > 9 B.c.5.2 % % 2 *.l.c.x.z.g.g.l.z.k.8.5.' ! ' ' ..q.%.G : ; ; ; * 6 T ",
"5.B 1 1 3 q 3 3 4 q q q v v n n q : * = 3 c 3 = ; - 1 3 8 q 8 w a 4 4 4 q l v n S V S 5 > E c.7.S 5 2 = & = 3 6.l.l.g.a.k.g.8.,.5.' Q ' 5.5.T T 6 ; ; * * ; G B.",
"8.B 2 3 3 3 3 4 4 4 l q 4 v v q 8 - * - 3 f 1 = = - : 3 8 8 8 3 4 4 3 4 v B B B 9 S 9 > > W c.W t 8 8 : % O * 3 5.......s.s.a.5.5...5.>.5./ 9 : * ; ; * * ; G f.",
"q.q 1 1 w 3 q 4 q q q l v v f f 8 : = - 1 3 - @ - - 1 1 8 w w 3 7 1 1 4 4 ! ! B > x 3 % 1 W z.i.i.c 2 : 1 1 : : 8 8 t T w.x.x.x.a.q.a.s.y.K : O * : 6 * O ; G J ",
"%.K i 7 1 1 8 8 8 t w 8 1 7 G g , $ $ < 7 4 , $ ! ! ! 1 < 7 w a 4 4 v 4 w 3 8 i ; ; ; > 9 i.v.B B i 8 1 : ; = * % = = = 3 q c 5.%.o.f 7 < ; = * : : # @ = : : 7 ",
"g t 1 : : 1 < 6 < 1 1 1 t / K t 1 & @ = 1 < = $ = < $ $ , 1 4 4 4 4 1 1 q B 6 # 6 * ; ; : T k.Q Q B i 3 1 ; = = - 3 : ; > : - 1 : : = ; - : 1 < = ; * @ ; ; : t ",
"< 1 : : : : 1 6 8 7 7 t J %.V 6 < = $ , 1 < = = = = = = < 4 7 , = 4 n 1 : : : ; 6 6 - = = l 8.,...K i 8 1 : - = ; - ; * 1 - = 1 * * * $ * = = : @ = = * - - : t ",
": : : : : 7 8 8 J K g G i t : $ $ $ < ! ! 1 = & $ = = , < < 1 , - 4 v 2 : = 6 G G G 6 ; * 8 g.8...K f 3 2 - = = % & & * 1 : ; 1 : ; ; * * * # * # ; = : 7 1 : < ",
"= : : : < 8 t t i G t < ; * # O @ , 3 ! f a < =   @ = = * - < , 4 - * 8 T G 8 6 8 8 8 : & 4 8.8...K i 8 1 : ; * = - = * : : * = * * = = = ; : < : : = : p G : = ",
"= * = ; : : < 6 * = = * O O @ O & < 1 1 7 4 3 1 $ 1 ! 4 1 < - = & & 1 ..w.G 6 : 6 8 8 : & 4 ,.X...K i i 1 1 : - - : = * 1 : ; - # * * * = : 6 1 6 < * ; J / 6 : ",
"= = # # * * = ; @ # @ O @ * * @ = , < , 1 4 1 & ! ( ~ ! t 1 : % o n x.w.8 6 6 8 6 : 1 : * 4 8.X.../ K i 8 8 1 1 : : * * 3 8 2 3 : - = = = = ; : < : * ; g / t < ",
"= * # # @ # * * = ; ; * : < ; # $ , < 1 1 1 * X < , < < 3 w : O 1 v.B.9 : G G 6 6 1 8 , = v s.8.5...K K i q 8 8 8 4 ; = 3 3 : 1 6 < : ; ; = = = ; - * = G g t t ",
": : : : ; ; = ; : ; # ; 7 8 = O * = * * % * = ; # : : - 1 3 = % D.v.4 4 G t 8 G G G 8 ; = q k.n.s.w.s.k.p.i.S 8 ; & * : 3 8 I a.J 7 - : ; * # = : : * * : 8 G i ",
"7 < < : : ; : : ; : 1 1 = * * = @ @ @ % % @ O % O ; ; : 1 - - c M.} 3 3 8 8 8 G 6 G t : : w } 8.x.s.>.K i q 3 : * * ; 3 q c B ..K 7 : : ; = # # 7 1 = = : 7 8 1 ",
"8 1 1 : : : < 1 : 1 < : : : = * & ; - 3 8 9 9 8 > # o % ; % > 7.3.v 1 2 8 6 8 G 6 t G 8 3 2 2 4 i 8 : - = = ; = & & 1 c K K q i 6 : ; * * * @ O * = # @ ; 7 8 : ",
"6 1 : : : : 1 1 8 6 : 1 7 1 ; # 4 8 S W w.g.g.g.W > o o * * > x } v 4 q t 8 G G 8 G V t q 1 , , @ * = - : = * % * ; 3 S K i 3 1 t t 1 = : 7 : * O # * * = : 7 t ",
"7 6 < : : < 6 6 - 6 i 1 = # : i q.T T T Y Y T T x.w.8 # % > - 5 Q ! v v v w t G G G G i i 3 1 , - 1 8 8 3 ; % + % ; : > 1 1 : : < : : * = < : # O ; < : # # < 1 ",
"1 1 6 6 6 1 1 1 7 < : ; * : G %.T T Y G V S Y T T c.x.9 * % : S Q ! n n f q t G G G i G i 8 2 4 8 i 8 3 1 ; * - % * = * = = ; * @ # @ @ # = # @ O ; 1 = @ @ = : ",
"- : : : : : : : 1 : = : t / %.K Y Y Y T q.w.w.w.9 w.g.I 9 ; - S ,.} ! n K K g G G G t V B q 4 v 3 1 1 : = : 3 8 * - ; & & ; - ; : : 1 q 8 : = ; # = : * + @ * = ",
"# * = = : = * * O = t O.%.....%.9 G Y Y T T W T w.S G i.g.9 : 5 8.&.Q ! ......g T G t V K q 4 l 1 8 3 8 1 1 3 q : 3 : = = : 2 1 * = 1 q 7 # @ @ K g 7 : * * # @ ",
"* 1 1 - : : * - 5 S 6.i.>.E 9 9 x W I I T T >.>.*.S n n Q m 4 2 8.k.9.&.Q 6.>.B V S S V 8 9 t V 8 8 3 : 1 : : : - 1 * % : 3 < 1 * & * & % % i b.b.v.b.b.k.B * . ",
"+ * & = 3 3 = = c.g.5.S 9 x S T G I I I T W >.q.Q n 5 5 Q m 5 3 5 Q 8.8.6.,.,.Q c I S V t t 9 9 8 8 8 3 1 1 1 : : 3 - * q I i c B 1 % X - ,.k.5.B f B 5.g.g.' n ",
"& & % % 2 2 - - 9.5.6.W S x 9 8 9 8 8 9 T Y Y I &.n n n m &.Q ! , 2 m 7.9.,.*.&.B B S 9 9 t G G q 8 8 1 1 1 1 3 2 3 : : B ..K ' / 1 & 1 8.M.8.1 - * * , 4 B B B ",
"9 4 = + & = 2 B 6.>.W I E S 5 > 8 8 8 9 G I V V ' Q n n &.,.&.&.2 - - m 6.6.' *.m S x G t 9 9 t i 8 8 8 8 3 8 8 8 8 : : i B q i 2 - 3 v.N.n , 1 4 2 < , , 4 q c ",
"' ' 4 = = & , 5.N.g.I 9 9 8 l 9 9 8 9 G S *.Q ..Q S n m m &.6.8.&., % 2 ,.8.3.8.S m n l t 9 c G q q q 3 q q q q q 8 : 1 i B 3 w - , B k.Q * - ' 3 1 1 , , 2 4 i ",
"4 ! f v 1 & - ' c l l 8 9 c S S 8 8 9 G S I ' &.l l 4 5 5 Q &.,.z.n - 2 &.9.v.8.S m c l c i t 9 q q q q q q q i i 8 1 3 K B 3 i % 4 5.B 3 3 4 2 - - 1 , = ; : 2 ",
"1 w f f w * @ 4 + ; 9 V >.T l 9 1 6 3 8 q S S S 4 l 5 5 n Q *.&.v.8.5 4 Q k.b.a.B n q q i i i t q 8 q 8 q q i q q 8 : 1 B 8 : 1 * B 5.q 3 Q 4 % l n B q 2 1 2 8 ",
"4 w 1 8 1 @ + < 3 8 c c i 9 8 9 3 3 9 l B S ' I l n m S Q &.,.8.,.6.Q 4 ! p.k.8.' B i q i i i t 8 q 8 q q q i i q 8 = : 3 = O % 5.,.n , - < 1 1 , 3 3 3 1 - 1 4 ",
"1 7 7 1 6 ; # ; : 3 t t V G t 8 8 8 6 G 9 T W >.5 M Q Q Q &.&.Q 8.} Q M Q 8.d.n.! ! ! ! ! v t t B i q q i i i i 5.i * - : o o I Q ' 3 & 1 5.3.q 8 2 1 2 4 8 8 3 ",
"7 a 7 6 6 # # ; 1 1 t i 9 G G 9 W G 9 9 9 G 8 9 5 M 5 Q Q Q Q Q X.} ~ M 4 4 X.y.b.4 , @.p...G J ' ' ' ......' K 8 : * ; - + * ..' 4 1 n k.v.p.' 3 1 3 3 4 8 4 3 ",
"1 a 6 6 6 ; # $ : : 1 8 t t t 9 9 8 8 8 8 8 8 3 4 4 4 5 5 5 Q M Q Q ~ 4 , , 2 a @.! ! X./ a i r.5.....' ' K c 3 * + * = @ % 1 ..n * - p.C.v./ / 1 1 3 4 9 8 3 > ",
"7 7 6 : 6 $ # ; = = ; - : 6 8 t 9 6 8 6 9 G 9 9 4 4 5 a 5 Q M 5 5 Q M 4 , $ & , & 4 ! < 1 @.p.y.a.O.' i 8 : * % % O - - O * ..q.B - , k.M.5.3 4 2 3 4 4 q q 3 1 ",
"7 7 6 < 6 ; # $ # ; # ; : 6 6 6 x G 9 9 l l l q v 4 5 l M 5 M 4 h s 4 4 , $ & , , = $ $ o.S.A.y.s.q.c 1 - = % + ; = 1 2 + : i.x.B q q ' *.q 2 1 1 3 8 q 9 8 6 1 ",
"7 7 < < < ; # $ ; # * * : 6 6 > > > > : 3 8 l l 4 l l 5 5 Q 5 M s a 4 4 , , & $ 4 $ @ 4 %.#./ O.K t 1 = * * % % : - 1 - % = i ..4 f q 2 1 3 3 : 3 3 q l 8 8 1 3 ",
"7 7 $ $ < $ O # ; # * ; > 6 ; ; o @ % > > 8 l n 4 l 5 l Q 5 4 4 4 4 4 , , & $ , , & < ! 7 $ * w : = * % * * * % ; ; = * = @ * 8 4 3 2 , , 1 3 3 3 4 q v 9 > 9 > ",
"< 7 ; ; < # O # ; # # * ; 6 ; * > ; ; : 3 8 9 8 5 q q 5 4 4 M 4 4 4 4 4 $ + $ , @ $ = , 1 < = = * * % * * * * * - 2 ; ; 8 * + 8 5.q 1 3 l q 4 4 4 v q q 6 6 6 6 ",
"@ < ; o % 4 3 % - * * & * & ; * 3 1 1 8 c B i 8 8 3 8 4 8 3 8 8 7 1 1 < - = , < $ @ = 7 : = ; $ = = @ @ & & * , q 1 1 7 4 1 1 < 2 v n v q 4 i B 9 9 8 8 6 6 G G ",
"- * @ & > l c c 3 2 2 - > - & & % & : 9 q 8 3 1 8 8 4 8 8 8 8 8 1 7 f 7 = $ * = $ + $ = $ * = = * $ $ @ @ $ = : 3 1 1 3 1 = = & ' 5.5.,.B 4 3 1 6 6 8 6 6 6 6 G ",
"2 % % q 8.5.5.N.,.*.,.&.W S q 2 ; = * % + % * ; : 1 1 1 1 8 3 3 8 i S 3 = @ = 1 1 = = * + # ; * 1 1 1 , = = = - 1 , 2 4 3 - * = 4 v ! S n q 8 8 6 6 6 6 G 6 6 6 ",
"- & 2 9.N.5.5.l.g.g.g.k.g.g.g.5.g.q.V 1 - ; - : % * * - : 1 1 3 8 8 9 ; * = < 4 1 = = * @ : G G 8.y.8.3.4 1 = , - - < 4 1 1 , 1 % * , 4 n B B B 9 6 6 6 6 6 > ; ",
"* 2 I 8.5.*.Q *.5.,.*.*.5.8.5.5.w.w.d.x.x...: O % & * * * - - - > ; * > * & = ; & * ; % % c B.x.v.b.N.v.8.n 1 , & & & = & $ , 2 = - 1 3 q f f i G G 6 6 6 ; ; # ",
"B 5.a.&.l S ,.*.8.' Q n m S S S i i K q.x.q.3 O = * * * * * * * % % % % > - % @ 3 B W - % 9 B.c.a.p.k.k.a.' f 2 , & & = , , , 2 - - = - , 2 3 1 G 6 6 > ; ; ; ; ",
"g.g.9.S m ,.6.6.,.&.S n n l l 4 K c V ..s.q.K 1 : - - - - - = ; > * % % * > > 9 l.Z.Z.S @ > i.7.5.,.,.8.9.9.,.S Q 2 2 4 ~ Q 5 Q 3 , * & & , : : > 6 ; ; # ; 6 G ",
"5.&.l m ,.,.*.Q S n n n n l 3 2 : 8 i ....G : @ ; - : : 1 1 3 3 E 5 > % - > 9.D.B.D.F.5.& > g.7.9.6.Q ,.9.z.k.8.E 4 4 Q 9.v.8.8.8.m 2 * & * * * # ; ; # # ; G %.",
"5.*.' *.6.,.*.Q Q Q S S S Q n l 8 i c i 1 - * = - - = * * * = - 2 & & - m n.M.Z.F.Z.g.E 2 - 5 9.8.8.,.&.&.&.8.9.s.8.&.8.n.n.v.9.5.k.p.B 1 % + - = * @ = 6 6 G 6 ",
"S Q Q &.*.,.,.&.*.S S Q S S n 4 i i q 3 : * % * % * = = ; * ; - & & 2 5 9.m.Z.m.g.S c S 9 4 5 &.&.,.6.6.8.&.8.9.8.Q &.Q 9.n.v.8.5.3.! 3 w 2 - 1 - = * = ; 6 6 6 ",
"n n S ' ,.,.*.&.*.Q Q Q Q Q m l K i 3 : - ; = * * - 3 i B q 4 3 , 4 a Q 6.8.&.&.5 2 2 l l 2 , , 5 E &.8.9.9.&.7.&.&.&.&.&.9.9.&.k.y.n q ,.B 1 * = ; - : 6 7 G G ",
"n m Q ,.5.8.*.' *.' &.' ,.&.S n K w 1 - : 3 8 1 : 3 K ..5.>.' B Q Q M 4 3 3 2 , Q 3 2 2 3 - & & 2 5 Q &.&.&.&.&.&.Q &.Q &.&.&.&.' 3.5.8.k.' - + O ; 8 t G G J T ",
"S Q ,.6.9.8.,.&.Q Q Q *.,.*.Q m ' 8 : - 1 i i i 1 w B ' K K K f j 4 4 4 4 4 4 4 n 4 1 1 a 2 , , 2 5 &.7.7.&.Q Q 8.&.9.&.Q Q Q Q 2 ' 5.5.5.q ; - - 8 G G t t G T ",
"*.,.6.6.i.5.,.Q Q S Q ,.,.,.S n B 3 : : 1 8 8 3 8 q B B i i i q 4 4 4 j a s 4 , 4 2 4 4 5 4 , $ 2 5 &.9.9.&.&.Q &.&.&.&.&.5 5 Q n ,.Q q 2 = * - q.w.s.G 8 G T G ",
"8.5.,.6.5.,.Q S S m Q *.&.,.Q l 3 1 - : 1 3 w 3 c B B B f v q n a 4 , 4 4 4 , , 4 4 5 ! ! 4 , % , 2 E &.8.&.&.Q Q Q Q &.&.&.5 5 ,.,.4 - 1 , = 1 w.d.x.T G T w.J ",
"g.5.6.*.' S S n B S Q *.6.*.S n : - - 1 3 8 i q q q B B q q q q 4 , , , 4 a 4 < , 4 4 4 a 4 3 , & 2 5 E &.&.&.Q 5 5 5 Q &.&.&.5 5 3 & * ! 5.B f - G T T %.d.B.G "
};
