/* XPM */
static char *e01811e3ae223375f75fb83e16a66fe09c44a0a0_o[] = {
/* columns rows colors chars-per-pixel */
"80 80 256 2 ",
"   c #1A0607",
".  c #110A0A",
"X  c #25080A",
"o  c #2C1411",
"O  c #322021",
"+  c #5C180F",
"@  c #6B1A05",
"#  c #6C1810",
"$  c #4F2C1E",
"%  c #683817",
"&  c #712912",
"*  c #711828",
"=  c #52332E",
"-  c #72322D",
";  c #6E4731",
":  c #654930",
">  c #0F3770",
",  c #182450",
"<  c #523B78",
"1  c #66324F",
"2  c #364970",
"3  c #20557E",
"4  c #71504A",
"5  c #4D4E71",
"6  c #68456D",
"7  c #7D7170",
"8  c #575C5D",
"9  c #901A13",
"0  c #961B2F",
"q  c #BC1D2D",
"w  c #B71929",
"e  c #B51C33",
"r  c #992429",
"t  c #9A2B35",
"y  c #8B3130",
"u  c #A8252B",
"i  c #B8242C",
"p  c #A82634",
"a  c #B42635",
"s  c #AE3539",
"d  c #99231A",
"f  c #C31B2C",
"g  c #CA1A2D",
"h  c #C8162B",
"j  c #D41C2D",
"k  c #C91B34",
"l  c #D81C32",
"z  c #C60F2C",
"x  c #E81D33",
"c  c #ED1C32",
"v  c #C6212E",
"b  c #C72637",
"n  c #D82535",
"m  c #D83539",
"M  c #CB2E37",
"N  c #E92738",
"B  c #F6283B",
"V  c #EF3037",
"C  c #CD1D1F",
"Z  c #90512F",
"A  c #AE493B",
"S  c #9B632E",
"D  c #8F5516",
"F  c #B0344B",
"G  c #90345F",
"H  c #D53449",
"J  c #CD3148",
"K  c #F82C42",
"L  c #E83547",
"P  c #FB3344",
"I  c #FC344A",
"U  c #FC3C4C",
"Y  c #F53848",
"T  c #EF354E",
"R  c #CC1A41",
"E  c #8F5750",
"W  c #B34E4E",
"Q  c #916853",
"!  c #AB715B",
"~  c #8E6D6B",
"^  c #AF766E",
"/  c #93416E",
"(  c #CE4C52",
")  c #F6424D",
"_  c #EB4657",
"`  c #F74555",
"'  c #EA4B4F",
"]  c #CD7057",
"[  c #D35065",
"{  c #F35666",
"}  c #D1726A",
"|  c #F56A77",
" . c #F06D71",
".. c #EE422E",
"X. c #708A62",
"o. c #A8B23A",
"O. c #F1ED15",
"+. c #E6D91E",
"@. c #B48558",
"#. c #8F8879",
"$. c #B48870",
"%. c #A4B569",
"&. c #C98975",
"*. c #C9967A",
"=. c #D9997C",
"-. c #D28570",
";. c #E7886C",
":. c #E98B75",
">. c #E99679",
",. c #F5987A",
"<. c #EF8B74",
"1. c #F0A27E",
"2. c #D8A07E",
"3. c #E5E46C",
"4. c #B0C26A",
"5. c #243985",
"6. c #0E4C95",
"7. c #304B92",
"8. c #064AA9",
"9. c #0654AA",
"0. c #034EB5",
"q. c #074BB8",
"w. c #0251B5",
"e. c #0254BC",
"r. c #035ABC",
"t. c #0956B9",
"y. c #1752AE",
"u. c #2D58B1",
"i. c #2A69B1",
"p. c #256D9E",
"a. c #4E4E96",
"s. c #4C7691",
"d. c #5E5B9E",
"f. c #074DC5",
"g. c #0256C4",
"h. c #0259C4",
"j. c #0355CB",
"k. c #035ACB",
"l. c #0A56C8",
"z. c #1356C6",
"x. c #0659D4",
"c. c #0E54D3",
"v. c #0465D8",
"b. c #0C69CF",
"n. c #3370CB",
"m. c #0569E3",
"M. c #0774E8",
"N. c #0E7BF0",
"B. c #1757D5",
"V. c #497AD4",
"C. c #8B4886",
"Z. c #B07781",
"A. c #EF7989",
"S. c #DD718D",
"D. c #2E86BA",
"F. c #1A80B2",
"G. c #5387B2",
"H. c #6989B0",
"J. c #6E928C",
"K. c #6C93CC",
"L. c #4F88D7",
"P. c #3999C7",
"I. c #8E9195",
"U. c #AAA994",
"Y. c #959BA9",
"T. c #949AAC",
"R. c #9CA4B4",
"E. c #9EA8B9",
"W. c #93A2AB",
"Q. c #B5B7AA",
"!. c #A4AABA",
"~. c #BCBCB2",
"^. c #ABAFB0",
"/. c #AD9998",
"(. c #D79984",
"). c #D38E91",
"_. c #E89B84",
"`. c #F69886",
"'. c #EE8C92",
"]. c #D9A588",
"[. c #D2AA92",
"{. c #EBAD8C",
"}. c #E8A687",
"|. c #F3AD8D",
" X c #F9A687",
".X c #EBB48B",
"XX c #F6B28D",
"oX c #EAAD93",
"OX c #F3B393",
"+X c #F8BA97",
"@X c #ECB099",
"#X c #D4B1AD",
"$X c #EEB0AC",
"%X c #E19CA8",
"&X c #BBC3B1",
"*X c #FAC39D",
"=X c #EBC795",
"-X c #C6C6BA",
";X c #CFCEB9",
":X c #FBCAA3",
">X c #F9D6A9",
",X c #F9DCB4",
"<X c #EACEAE",
"1X c #FAE5B9",
"2X c #F9E9B6",
"3X c #FCF786",
"4X c #ABB3C3",
"5X c #ADB8CA",
"6X c #B2BCCD",
"7X c #B6B9C9",
"8X c #B5BED1",
"9X c #BABCD3",
"0X c #ABADC1",
"qX c #C5BBC9",
"wX c #F0B7C4",
"eX c #B9C2CC",
"rX c #B5C1D2",
"tX c #BAC4D5",
"yX c #BECADA",
"uX c #BBC8D7",
"iX c #B2D1D2",
"pX c #CCCDC1",
"aX c #C9C8C8",
"sX c #D2D2C5",
"dX c #D4D5CA",
"fX c #DADBCC",
"gX c #D8D7C9",
"hX c #C3CDDC",
"jX c #C4CAD6",
"kX c #CBD2DB",
"lX c #D8DAD6",
"zX c #D1D3C4",
"xX c #E8D7D6",
"cX c #EAD1CC",
"vX c #DCE3D8",
"bX c #DFE1CF",
"nX c #E5E5DA",
"mX c #EAEBDC",
"MX c #E5E5D7",
"NX c #EBF0DE",
"BX c #F9EFCC",
"VX c #C5CFE0",
"CX c #CBD5E3",
"ZX c #D4DCE6",
"AX c #DAE3EC",
"SX c #D8F9EF",
"DX c #EAEAE8",
"FX c #E9F4E8",
"GX c #F2F3E4",
"HX c #F6F7EB",
"JX c #E6EBF3",
"KX c #EBF2F4",
"LX c #F6F7F8",
"PX c #F8EBEC",
"IX c #EBDCE1",
"UX c None",
/* pixels */
"UXUXUXUXUXUXUXUXUXUXUXUXUXUXUXUXUXUXUXUXUXUXUXUXUXUXUXUXUXUXUXUXUXUXUXUXUXUXUXUXUXUXUXUXUXUXUXUXUXUXUXUXUXUXUXUXUXUXUXUXUXUXUXUXUXUXUXUXUXUXUXUXUXUXUXUXUXUXUXUX",
"UXUXUXUXUXUXUXUXUXUXUXUXUXUXUXUXUXUXUXUXUXUXUXUXUXUXUXUXUXUXUXUXUXUXUXUXUXUXUXUXUXUXUXUXUXUXUXUXUXUXUXUXUXUXUXUXUXUXUXUXUXUXUXUXUXUXUXUXUXUXUXUXUXUXUXUXUXUXUXUX",
"UXUXUXUXUXUXUXUXUXUXUXUXUXUXUXUXUXUXUXUXUXUXUXUXUXUXUXmXNXMXUXUXUXUXUXUXUXUXUXUXUXUXUXUXUXUXUXUXUXUXUXUXUXUXUXUXUXUXUXUXUXUXUXUXUXUXUXUXUXUXUXUXUXUXUXUXUXUXUXUX",
"UXUXUXUXUXUXUXUXUXUXUXUXUXUXUXUXUXUXUXUXUXUXUXUXUXUXfXfXMXMXnXUXUXUXUXUXUXUXUXUXUXUXUXUXUXUXUXUXUXUXUXUXUXUXUXUXUXUXUXUXUXUXUXUXUXUXUXUXUXUXUXUXUXUXUXUXUXUXUXUX",
"UXUXUXUXUXUXUXUXUXUXUXUXUXUXUXUXUXUXUXUXUXUXUXUXUXGXgX-XfXMXnXDXUXUXUXUXUXUXUXUXUXUXUXUXUXUXUXUXUXUXUXUXUXUXUXUXUXUXUXUXUXUXUXUXUXUXUXUXUXUXUXUXUXUXUXUXUXUXUXUX",
"UXUXUXUXUXUXUXUXUXUXUXUXUXUXUXUXUXUXUXUXUXUXUXUXUXHXGX&X-XfXmXnXUXUXUXUXUXUXUXUXUXUXUXUXUXUXUXUXUXUXUXUXUXUXUXUXUXUXUXUXUXUXUXUXUXUXUXUXUXUXUXUXUXUXUXUXUXUXUXUX",
"UXUXUXUXUXUXUXUXUXUXUXUXUXUXUXUXUXUXUXUXUXUXUXUXUXDXHXfX&XpXvXGXNXUXUXUXUXUXUXUXUXUXUXUXUXUXUXUXUXUXUXUXUXUXUXUXUXUXUXUXUXUXUXUXUXUXUXUXUXUXUXUXUXUXUXUXUXUXUXUX",
"UXUXUXUXUXUXUXUXUXUXUXUXUXUXUXUXUXUXUXUXUXUXUXUXUXsXMXNX;X-XpXMXGXGXUXUXUXUXUXUXUXUXUXUXUXUXUXUXUXUXUXUXUXUXUXUXUXUXUXUXUXUXUXUXUXUXUXUXUXUXUXUXUXUXUXUXUXUXUXUX",
"UXUXUXUXUXUXUXUXUXUXUXUXUXUXUXUXUXUXUXUXUXUXUXUXUX&XdXvXmXDXdXgXGXHXGXUXUXUXUXUXUXUXUXUXUXUXUXUXUXUXUXUXUXUXUXUXUXUXUXUXUXUXUXUXUXUXUXUXUXUXUXUXUXUXUXUXUXUXUXUX",
"UXUXUXUXUXUXUXUXUXUXUXUXUXUXUXUXUXUXUXUXUXUXUXUXUXdX-XfXfXDXHXMXgXNXHXHXUXUXUXUXUXUXUXUXUXUXUXUXUXUXUXUXUXUXUXUXUXUXUXUXUXUXUXUXUXUXUXUXUXUXUXUXUXUXUXUXUXUXUXUX",
"UXUXUXUXUXUXUXUXUXUXUXUXUXUXUXUXUXUXUXUXUXUXUXUXUXUXzXpX;X;XNXHXmXfXGXHXHXHXUXUXUXUXUXUXUXUXUXUXUXUXUXUXUXUXUXUXUXUXUXUXUXUXUXUXUXUXUXUXUXUXUXUXUXUXUXUXUXUXUXUX",
"UXUXUXUXUXUXUXUXUXUXUXUXUXUXUXUXUXUXUXUXUXUXUXUXUXUXFXdX;X;XsXMXGXNXbXGXHXHXHXUXUXUXUXUXUXUXUXUXUXUXUXUXUXUXUXUXUXUXUXUXUXUXUXUXUXUXUXUXUXUXUXUXUXUXUXUXUXUXUXUX",
"UXUXUXUXUXUXUXUXUXUXUXUXUXUXUXUXUXUXUXUXUXUXUXUXUXlXlXmXvXMXpX-XgXGXNXfXmXHXHXHXUXUXUXUXUXUXUXUXUXUXUXUXUXUXUXUXUXUXUXUXUXUXUXUXUXUXUXUXUXUXUXUXUXUXUXUXUXUXUXUX",
"UXUXUXUXUXUXUXUXUXUXUXUXUXkXUXUXUXUXUXUXUXUXUXUXUXUX~.pXbXFXGXgX&X;XGXGXbXMXGXHXHXUXUXUXUXUXUXUXUXUXUX'.| | | | | '.UXUXUXUXUXUXUXUXUXUXUXUXUXUXUXUXUXUXUXUXUXUX",
"UXUXUXUXUXUXUXUXUXUXUXjX4XkXLXJXaXkXUXUXUXUXUXUXUXUXdX^.~.;XmXFXnX-X;XmXGXMXsXmXGXGXvXUXUXUXUX| T K B B K K P I U ) ` A.UXUXUXUXUXUXUXUXUXUXUXUXUXUXUXUXUXUXUXUX",
"UXUXUXUXUXUXUXUXUXUXjX!.!.CXKXZX!.kXUXUXUXUXUXUXUXUXUXsXQ.Q.-XvXmXDXfXdXfXmXbX;XMXGXnXxX'._ K c B B B B I T U U ` ` U ) _ A.UXUXUXUXUXUXUXUXUXUXUXUXUXUXUXUXUXUX",
"UXUXUXUXUXUXUXUXUXkX4XE.4XhXKXrX!.kXUXUXUXUXUXUXUXUXUXUXnXgX-X#X-XpXfXDXnXfXbXsX;XPXnX;XT c N B B K I I U U ` ` ` { |  .{ I A.UXUXUXUXUXUXUXUXUXUXUXUXUXUXUXUXUX",
"UXUXUXUXUXUXUXUXUXjX4XR.4XjXJX^.!.CXKXUXUXUXUXUXUXUXUXUX&XdXmXMXsX&X~.-XpXfXgXfX;XMXvXfX} B c B K K P I T U U ` A.xXGX$XmXoX_ | UXUXUXUXUXUXUXUXUXUXUXUXUXUXUXUX",
"UXUXUXUXUXUXUXUXUXkX4XR.0XtXAX!.E.jXJXUXUXUXUXUXUXUXUXUXpXU.~.gXnXmXnXnXdXdXsXdXgXcXfXsX[.H N B K K P I U U T A.PXFX'.' xXSX@X` '.UXUXUXUXUXUXUXUXUXUXUXUXUXUXUX",
"UXUXUXUXUXUXUXUXUXkX4X!.!.rXkXR.R.tXAXUXUXUXUXUXUXUXUXUXUXdX^.Q.-XpX;XdXgXgXdXzXzXgXdX-X[.T B B K P P I I I U $XHX%XK Y  .'.| '.{ UXUXUXUXUXUXUXUXUXUXUXUXUXUXUX",
"UXUXUXUXUXUXUXUXUXjX5X!.R.8XuXR.W.eXCXUXUXUXUXUXUXUXJXLXLXHXDX-X~.Q.~.zXaXzXaXpXzXfX;X#X' N L B K I I I T U ` wX@Xc  .$XV V ` cX{ '.UXUXUXUXUXUXUXUXUXUXUXUXUXUX",
"UXUXUXUXUXUXUXUXaX!.8X!.T.9X9XR.I.eXjXAXUXUXUXAXkXZXJXJXKXLXLXaX-XsX-X~.#XQ.&X-XzXsX].H N N N B B B V K Y V Y $X{ V cXxX'.$X` cXA.| UXUXUXUXUXUXUXUXUXUXUXUXUXUX",
"UXUXUXUXUXUXUXUX!.!.tX4XY.4X9X0XI.5XtXZXUXUXDXhXkXZXAXKXLXPXLXGX#X~.-X;X-X;XsXpX;XZ.L x x N N V V N N N m V N A.|.@XDXFXGXcX) <XA.` UXUXUXUXUXUXUXUXUXUXUXUXUXUX",
"UXUXUXUXUXUXUXUX4XT.7X7X!.R.jX4XT.R.8XhXAXSXkXyXCXAXJXKXLXPXLXLXKX/.~ ^ U.U.Q.U.[ l x x n n j l x x n N c c c H ).#X<XxXPXcXB $X| T UXUXUXUXUXUXUXUXUXUXUXUXUXUX",
"UXUXUXUXUXUXUXUX7XR.R.tX0XT.5X9XR.T.6XyXZXZXjXhXCXAXKXKXLXLXLXFX#XJ w k s F W J l l k i v g l x x x N K B N N N B T { '.$X#X'. .U B UXUXUXUXUXUXUXUXUXUXUXUXUXUX",
"UXUXUXUXUXUXUXUXeX!.Y.9X5XT.E.9X6X5X7XrXeX!.rXhXAXAXJXJXLXLXLXcXJ h i f h j j j g f g l l x n n b b q k a a i i i a b H _ A.'.' P B '.UXUXUXUXUXUXUXUXUXUXUXUXUX",
"UXUXUXUXUXUXUXUXjX~.I.!.8X0X8XtX8XrX7X5XR.!.rXhXZXJXKXLXLXKXKXS.k q q h h q f q i e i k f u u i t y * + * t p u p p u t u a b N Y B '.UXUXUXUXUXUXUXUXUXUXUXUXUX",
"UXUXUXUXUXUXUXUXZX7XR.!.5X5X8XrXrX7X5X4X5X8XrXhXAXJXKXLXLXKXxX( q q k z q q q f w r s s F W A ! - X X X X + A t p p e p a u p t b N '.UXUXUXUXUXUXUXUXUXUXUXUXUX",
"UXUXUXUXUXUXUXUXUXjX5X8X8X5X8XrXtX6X5XrXrXrXrXyXAXJXKXPXKXLX$Xa u w z k f w 9 9 # t ] ] ] } ;.! $ = Z - X o Q ] W F p u u t s p p p J UXUXUXUXUXUXUXUXUXUXUXUXUX",
"UXUXUXUXUXUXUXUXUXkXtX8X8X5X8X8XrXrX6XrXuXtX6XiXCXJXKXKXLXLX$X-.-.} s p 9 @ @ @ # ^ >.:.;.:.<.@.! <.<._.! O 4 <.;.&.( s u p p a p a p F UXUXUXUXUXUXUXUXUXUXUXUX",
"UXUXUXUXUXUXUXUXUXAXjX8X8X8X6X8X8XrXrXrXuXuXrXrXVXAXKXLXHX<X:X+X:X>X@XZ @ @ & @ & &.=.>.,.>.,.`.,.2.).`._.E ; ,.,.;.;.-.E * r u p p p p ( UXUXUXUXUXUXUXUXUXUXUX",
"UXUXUXUXUXUXUXUXUXUXjXrX8X5X5X5X6XrXtXyXyXrXrXrXyXZXJXJXxX+X|.,.>..X:X*.& @ @ @ & &._._.>._.'.}.).%X#X#X}.&.@.1.1.,.,.Q X   + p p p a p k UXUXUXUXUXUXUXUXUXUXUX",
"UXUXUXUXUXUXUXUXUXUXkXrX8X6X5X5X8XrXuXyXyXtXrXrXjXZXAXlXmX$XXX}.<.>. X1.% + @ 9 9 &.1..X+X.X}.*.H.G.W.$X#X'.>. X>.`.*.; 4 = + 0 p p p e q UXUXUXUXUXUXUXUXUXUXUX",
"UXUXUXUXUXUXUXUXUXUXUXtX8X8X5X5X6XtXyXVXyXtX8X8XtXkXjXkXHX<X:X*X X>.1.2.y @ @ @ & } =X:X:X>X*XJ.p.F.P.kXxX]. X,.`.}.$.*.`.-.= 0 u r p u F UXUXUXUXUXUXUXUXUXUXUX",
"UXUXUXUXUXUXUXUXUXUXUXCXrX8X6X6X5XtXVXVXhXtX7X8XuX9XqXIXHX,X<X=X1.;.>.;.y @ @ + & _.*X>X:X>X;Xp., 2 D.iXPX<X*X*XXX`.].#X_.>.E r u u e F UXUXUXUXUXUXUXUXUXUXUXUX",
"UXUXUXUXUXUXUXUXUXUXUXUXhXtX8X8X8XtXVXVXyXuX6X5X5X!.xXLXcX_.<X=XXX<.;.;.D @ & % -.*X>X>X>X<XQ.3 , , D.AXmX<X1X2X>X/.D.!.#X'.] d 0 F W UXUXUXUXUXUXUXUXUXUXUXUXUX",
"UXUXUXUXUXUXUXUXUXUXUXUXUXVXjX9XtXyXVXVXyXtX8XE.W.jXKXFXA.` @X,X=X,.;.:.A @ & =.*X>X>X1X#X= ~ 6., > K.DX;X>X,X>X>X#.D.K.qX1.] ^ UXUXUXUXUXUXUXUXDXUXUXUXUXUXUXUX",
"UXUXUXUXUXUXUXUXUXUXUXUXUXUXkXVXhXyXVXVXyX6XR.T.qXAXSX%X_ U | :X>X}.<.<.} Z -.XX*X:X>X=X8 . O > > p.7XxX@X+X*X>X2X2X;X&X@X_.].UXUXUXUXUXUXUXUXDXUXLXUXUXUXUXUXUX",
"UXUXUXUXUXUXUXUXUXUXUXUXUXUXUXCXVXVXVXuX4XT.E.rXCXZX%XT ) ) U <.,X=X<.<.>.,. X+X*X*X:X*.X . . O 8 Q.;X=XoXOX:X1X2X2XBXBX2X<XIXUXUXUXUXUXUXUXUXUXUXUXUXUXUXUXUXUX",
"UXUXUXUXUXUXUXUXUXUXUXUXUXUXUXUXkXrX9X4XE.0XrXuXuX).T I ) U U ` >.OX_.<.,.1. XXX*X*X=X$.o .     . : U.2._.+X*X,X2X2XBXBXBXBXGXUXUXUXUXUXUXUXUXUXUXUXUXUXUXUXUXUX",
"UXUXUXUXUXUXUXUXUXUXUXUXUXUXUXUXUXqX6X8XtXtXiX^.} H N L I U ) ) '  .=.;.>.,.1.XX*X*X+X*.:       . . O Q }.XX*X>X1X1XBXBX2XBXBXUXUXUXUXUXUXUXUXUXUXUXUXUXUXUXUXUX",
"UXUXUXUXUXUXUXUXUXUXUXUXUXUXUXUXUXUXCXhXiX^.Z.F v M N K Y U U U ) ' ( } >.,.1.XXXX+X+X1.$.=       X   4 }.XX+X*X:X,X,X1X2X2XBXnXUXUXUXUXUXUXUXUXUXUXUXUXUXUXUXUX",
"UXUXUXUXUXUXUXUXUXUXUXUXUXUXUXUXUXUXUXwX[ a j z g j x N L U U U U ) m ] >.,. X XXXXX+XXX].$.4     X   = ].}.XX+X*X:X>X,X,X>X,XxXUXUXUXUXUXUXUXUXUXUXUXUXUXUXUXUX",
"UXUXUXUXUXUXUXUXUXUXUXUXUXUXUXUXUXUXUXUX} w i f f g v n B B Y U U U m ] <.,.`. XXXXX+X+XOX{.$.O   X   o $.@X{..X+X+X:X:X:X:X;X#XUXUXUXUXUXUXUXUXUXUXUXUXUXUXUXUX",
"UXUXUXUXUXUXUXUXUXUXUXUXUXUXUXUXUXUXUXUXUX[ k k f f k n n B Y Y U U ' ( } ,.`.|.XXXXOXOX+XXX=.Q o   X   = [.@X{.{.{..XOX+X:X7 7 UXUXUXUXUXUXUXUXUXUXUXUXUXUXUXUX",
"UXUXUXUXUXUXUXUXUXUXUXUXUXUXUXUXUXUXUXUXUXUX( v h f q j n N V Y U U U s ] ,. X|.|.|.OXOXOX+X(.$.^ 4 $ X X : *.@XOX{.{.{.[.! X 7 UXUXUXUXUXUXUXUXUXUXUXUXUXUXUXUX",
"UXUXUXUXUXUXUXUXUXUXUXUXUXUXUXUXUXUXUXUXUXUXUXJ w w h v j n N P P U U i A <.>. X X|.OXOX+X+X(.8 #.$.$.O X   O 4 $.$./.Q = .   $.UXUXUXUXUXUXUXUXUXUXUXUXUXUXUXUX",
"UXUXUXUXUXUXUXUXUXUXUXUXUXUXUXUXUXUXUXUXUXUXUXUXJ z f f j j n N B U Y M u ] >.1.|.|.OXOXOX+X&.+ 4 I.^.I.8 = o   o X o . . = t  .$XUXUXUXUXUXUXUXUXUXUXUXUXUXUXUX",
"UXUXUXUXUXUXUXUXUXUXUXUXUXUXUXUXUXUXUXUXUXUXUXUXUXk k k i v n N B Y B M r - } >.|.{.|.OX+X+X! * * - ~ Y.!.R.I.= O : $ $ Q } ) ` '.UXUXUXUXUXUXUXUXUXUXUXUXUXUXUX",
"UXUXUXUXUXUXUXUXUXUXUXUXUXUXUXUXUXUXUXUXUXUXUXUXUX} h h i v g n N V Y m i * 1 &. X|.{.OXOX+X! * 0 * * * 4 ~ I.~ Q -.*.=.'.' U U  .UXUXUXUXUXUXUXUXUXUXUXUXUXUXUX",
"UXUXUXUXUXUXUXUXUXUXUXUXUXUXUXUXUXUXUXUXUXUXUXUXUXUXW k h f v j l N V m m 1 , 5 (. X|.{.OX+X$.y 0 - y * * + y ! *.=.].}.{ I Y P ' UXUXUXUXUXUXUXUXUXUXUXUXUXUXUX",
"UXUXUXUXUXUXUXUXUXUXUXUXUXUXUXUXUXUXUXUXUXUXUXUXUXUXF e f g f h n n N N n < 6.> 4 :.{.{.oX@X@XE y 0 0 * + Z &.(.=.].]. .Y K V N L UXUXUXUXUXUXUXUXUXUXUXUXUXUXUX",
"UXUXUXUXUXUXUXUXUXUXUXUXUXUXUXUXUXUXUXUXUXUXUXUXUXC.w e f f f f g l n n F 6.6.> = s =..X{.{.OX<X^ G t Z ! (.].].].>.{ L N x x j [ UXUXUXUXUXUXUXUXUXUXUXUXUXUXUX",
"UXUXUXUXUXUXUXUXUXUXUXUXUXUXUXUXUXUXUXUXUXUXUXUXu.G w z z w q f h l N N 6 t.y.8.G w W _.OX].oX.X=XXX}.}.].].].:.{ L N n j f f F UXUXUXUXUXUXUXUXUXUXUXUXUXUXUXUX",
"UXUXUXUXUXUXUXUXUXUXUXUXUXUXUXUXUXUXUXUXUXUXUXy.8.G u w w f f g k l x J b.z.t.w.G v u W >.{.{.@XoX}.}.].&.} ' n v v k h k J ( UXUXUXUXUXUXUXUXUXUXUXUXUXUXUXUXUX",
"UXUXUXUXUXUXUXUXUXUXUXUXUXUXUXUXUXUXUXUXUXUXy.8.q.7.k f w f g g l N x a.N.b.r.y.F n a a s ( } :.(./.Z.( n v h f f h n [ UXUXUXUXUXUXUXUXUXUXUXUXUXUXUXUXUXUXUXUX",
"UXUXUXUXUXUXUXUXUXUXUXUXUXUXUXUXUXUXUXUXUXi.f.8.f.t.5 F l j C l x n / b.N.N.b.u.F H H H H M J s 5 6.6 v q w k b ( '.UXUXUXUXUXUXUXUXUXUXUXUXUXUXUXUXUXUXUXUXUXUX",
"UXUXUXUXUXUXUXUXUXUXUXUXUXUXUXUXUXUXUXUXV.q.9.9.0.j.v.z.a.d.C.C.d.u.y.N.N.N.N.u.H H H H m N H M 5.8.7.k b _ S.UXUXUXUXUXUXUXUXUXUXUXUXUXUXUXUXUXUXUXUXUXUXUXUXUX",
"UXUXUXUXUXUXUXUXUXUXUX! S ! UXUXUXUXG.y.g.w.8.w.z.f.k.k.c.x.x.m.B.z.s.4.4.J.N.V.W H L L H m m J 5.y.a.S.UXUXUXUXUXUXUXUXUXUXUXUXUXUXUXUXUXUXUXUXUXUXUXUXUXUXUXUX",
"UXUXUXUXUXUXUXUXUXQ % % ; ; ; d.V.z.8.8.w.h.t.h.l.t.h.h.k.k.k.x.B.s.+.O.O.3.H.v.n.C.H Y L L m M 2 q.V.UXUXUXUXUXUXUXUXUXUXUXUXUXUXUXUXUXUXUXUXUXUXUXUXUXUXUXUXUX",
"UXUXUXUXUXUXUXUX; $ = 2 7.y.B.b.t.0.8.q.g.g.r.h.j.j.x.c.x.h.r.j.y.X.+.O.O.3XU.b.M.N.i.6 G G / a.> q.V.UXUXUXUXUXUXUXUXUXUXUXUXUXUXUXUXUXUXUXUXUXUXUXUXUXUXUXUXUX",
"UXUXUXUXUXUXUX% = 2 y.g.h.l.z.t.8.8.8.8.e.e.t.z.g.j.j.h.k.x.x.j.6.8 +.O.O.O.I.m.M.M.M.M.z.t.y.t.6.u.[.UXUXUXUXUXUXUXUXUXUXUXUXUXUXUXUXUXUXUXUXUXUXUXUXUXUXUXUXUX",
"UXUXUXUXUXUXUX% 7.q.l.r.h.e.e.q.q.q.0.w.e.e.e.e.h.h.h.j.x.k.r.x.6.7.o.+.+.%.i.v.m.M.M.M.M.b.b.y.z.o.O.UXUXUXUXUXUXUXUXUXUXUXUXUXUXUXUXUXUXUXUXUXUXUXUXUXUXUXUXUX",
"UXUXUXUXUXUXUX5 t.t.t.r.e.g.g.w.0.e.e.e.e.e.e.r.h.g.g.h.h.x.r.k.0.6.3 3 3 p.k.v.v.m.m.m.m.m.m.x.s.O.O.UXUXUXUXUXUXUXUXUXUXUXUXUXUXUXUXUXUXUXUXUXUXUXUXUXUXUXUXUX",
"UXUXUXUXUXUXUXz.t.t.t.j.f.e.e.e.e.w.g.e.g.e.g.g.r.g.g.g.l.j.h.r.x.8.8.8.8.0.x.v.k.v.v.v.v.v.m.h.s.+.+.UXUXUXUXUXUXUXUXUXUXUXUXUXUXUXUXUXUXUXUXUXUXUXUXUXUXUXUXUX",
"UXUXUXUXUXUX7.0.w.e.r.j.g.g.e.e.e.g.g.g.e.g.e.r.r.e.h.h.g.g.g.r.j.h.j.j.x.x.v.k.v.k.x.v.v.v.v.q.s.+.3.UXUXUXUXUXUXUXUXUXUXUXUXUXUXUXUXUXUXUXUXUXUXUXUXUXUXUXUXUX",
"UXUXUXUXUXUXu.t.t.t.l.g.g.g.g.g.e.g.g.g.g.g.g.e.e.e.h.e.g.e.g.e.h.r.x.h.l.h.k.k.k.x.v.k.k.x.x.6.y.Q.UXUXUXUXUXUXUXUXUXUXUXUXUXUXUXUXUXUXUXUXUXUXUXUXUXUXUXUXUXUX",
"UXUXUXUXUXUXy.t.l.l.e.e.g.g.g.g.g.e.g.g.h.g.h.e.e.r.e.g.g.e.g.g.e.w.g.l.g.g.x.l.h.h.k.k.k.h.l.q.u.UXUXUXUXUXUXUXUXUXUXUXUXUXUXUXUXUXUXUXUXUXUXUXUXUXUXUXUXUXUXUX",
"UXUXUXUXUXUXt.h.f.l.h.g.g.g.g.h.g.g.g.g.j.g.g.g.e.e.r.e.g.g.e.e.g.e.e.g.e.g.e.g.e.r.g.g.g.h.l.f.K.UXUXUXUXUXUXUXUXUXUXUXUXUXUXUXUXUXUXUXUXUXUXUXUXUXUXUXUXUXUXUX",
"UXUXUXUXUXUX8.x.t.r.j.h.g.h.j.j.j.g.g.j.h.g.j.j.g.g.r.e.w.e.e.e.w.g.e.q.w.e.w.w.e.e.e.r.g.g.j.u.UXUXUXUXUXUXUXUXUXUXUXUXUXUXUXUXUXUXUXUXUXUXUXUXUXUXUXUXUXUXUXUX",
"UXUXUXUXUXUXy.c.r.l.k.j.j.h.h.k.g.h.j.h.j.j.j.j.j.g.e.e.e.e.w.e.e.w.q.w.q.q.0.w.e.0.0.w.e.f.q.UXUXUXUXUXUXUXUXUXUXUXUXUXUXUXUXUXUXUXUXUXUXUXUXUXUXUXUXUXUXUXUXUX",
"UXUXUXUXUXUX5.t.k.l.k.h.j.g.h.h.h.j.h.j.h.k.h.k.h.j.g.e.r.e.w.0.w.w.w.0.w.w.0.0.0.0.0.0.8.y.K.UXUXUXUXUXUXUXUXUXUXUXUXUXUXUXUXUXUXUXUXUXUXUXUXUXUXUXUXUXUXUXUXUX",
"UXUXUXUXUXUXUXz.l.l.x.r.h.h.k.k.j.j.g.h.g.g.g.e.g.j.j.j.e.e.w.e.w.w.w.0.q.0.0.0.8.8.q.q.6.K.UXUXUXUXUXUXUXUXUXUXUXUXUXUXUXUXUXUXUXUXUXUXUXUXUXUXUXUXUXUXUXUXUXUX",
"UXUXUXUXUXUXUX2 y.l.x.k.k.c.y.7.q.e.w.q.q.q.q.9.w.g.g.g.g.r.r.e.g.g.g.e.e.e.0.9.w.w.q.u.UXUXUXUXUXUXUXUXUXUXUXUXUXUXUXUXUXUXUXUXUXUXUXUXUXUXUXUXUXUXUXUXUXUXUXUX",
"UXUXUXUXUXUXUXUXUX7.u.n.7.= - % 2 y.8.9.0.0.q.w.e.f.j.j.g.j.h.g.r.t.t.9.e.l.l.q.q.u.K.UXUXUXUXUXUXUXUXUXUXUXUXUXUXUXUXUXUXUXUXUXUXUXUXUXUXUXUXUXUXUXUXUXUXUXUXUX",
"UXUXUXUXUXUXUXUXUXUXUXUX% % % Z - 7.f.e.e.g.g.l.g.j.f.e.g.g.l.j.l.c.b.x.z.t.n.L.UXUXUXUXUXUXUXUXUXUXUXUXUXUXUXUXUXUXUXUXUXUXUXUXUXUXUXUXUXUXUXUXUXUXUXUXUXUXUXUX",
"UXUXUXUXUXUXUXUXUXUXUXUXQ % ; D Z : 8 y.B.n.V.L.n.V.V.L.L.UXUXUXUXUXUXUXUXUXUXUXUXUXUXUXUXUXUXUXUXUXUXUXUXUXUXUXUXUXUXUXUXUXUXUXUXUXUXUXUXUXUXUXUXUXUXUXUXUXUXUX",
"UXUXUXUXUXUXUXUXUXUXUXUXUXD S S Z D D Z ~ UXUXUXUXUXUXUXUXUXUXUXUXUXUXUXUXUXUXUXUXUXUXUXUXUXUXUXUXUXUXUXUXUXUXUXUXUXUXUXUXUXUXUXUXUXUXUXUXUXUXUXUXUXUXUXUXUXUXUX",
"UXUXUXUXUXUXUXUXUXUXUXUXUX$.S S S S Z $.UXUXUXUXUXUXUXUXUXUXUXUXUXUXUXUXUXUXUXUXUXUXUXUXUXUXUXUXUXUXUXUXUXUXUXUXUXUXUXUXUXUXUXUXUXUXUXUXUXUXUXUXUXUXUXUXUXUXUXUX",
"UXUXUXUXUXUXUXUXUXUXUXUXUXUXUX$.! @.UXUXUXUXUXUXUXUXUXUXUXUXUXUXUXUXUXUXUXUXUXUXUXUXUXUXUXUXUXUXUXUXUXUXUXUXUXUXUXUXUXUXUXUXUXUXUXUXUXUXUXUXUXUXUXUXUXUXUXUXUXUX"
};
